<?xml version="1.0" standalone="no"?>
<!DOCTYPE svg PUBLIC "-//W3C//DTD SVG 1.1//EN" "http://www.w3.org/Graphics/SVG/1.1/DTD/svg11.dtd" >
<svg xmlns="http://www.w3.org/2000/svg" xmlns:xlink="http://www.w3.org/1999/xlink" version="1.1">
<metadata>
Created by FontForge 20141024 at Wed Apr 15 20:39:49 2015
 By System Administrator
</metadata>
<defs>
<font id="icons" horiz-adv-x="1024" >
  <font-face 
    font-family="icons"
    font-weight="400"
    font-stretch="normal"
    units-per-em="1024"
    panose-1="0 0 0 0 0 0 0 0 0 0"
    ascent="960"
    descent="-64"
    bbox="-3 -196 1216 960.018"
    underline-thickness="0"
    underline-position="0"
    unicode-range="U+0001-FFFD"
  />
<missing-glyph horiz-adv-x="0" 
 />
    <glyph glyph-name=".notdef" unicode="&#xfffd;" horiz-adv-x="0" 
 />
    <glyph glyph-name="glyph1" horiz-adv-x="0" 
d="M0 0v0v0v0z" />
    <glyph glyph-name="glyph1" horiz-adv-x="0" 
d="M0 0v0v0v0z" />
    <glyph glyph-name="uni0001" horiz-adv-x="0" 
d="M0 0v0v0v0z" />
    <glyph glyph-name="space" unicode=" " horiz-adv-x="512" 
d="M0 0v0v0v0z" />
    <glyph glyph-name="uniE600" unicode="&#xe600;" 
d="M512 864q-86 0 -162 -32.5t-132.5 -89t-89 -132.5t-32.5 -162t32.5 -162t89 -132.5t132.5 -89t162 -32.5t162 32.5t132.5 89t89 132.5t32.5 162t-32.5 162t-89 132.5t-132.5 89t-162 32.5v0zM512 96q-73 0 -137 27.5t-112 75.5t-75.5 112t-27.5 137t27.5 137t75.5 112
t112 75.5t137 27.5t137 -27.5t112 -75.5t75.5 -112t27.5 -137t-27.5 -137t-75.5 -112t-112 -75.5t-137 -27.5v0zM474 553q-14 -11 -27 -18.5t-25 -11.5v-55q23 7 43 18.5t37 27.5v-227h65v320h-54q-5 -15 -14.5 -29t-24.5 -25v0z" />
    <glyph glyph-name="uniE601" unicode="&#xe601;" 
d="M512 864q-86 0 -162 -32.5t-132.5 -89t-89 -132.5t-32.5 -162t32.5 -162t89 -132.5t132.5 -89t162 -32.5t162 32.5t132.5 89t89 132.5t32.5 162t-32.5 162t-89 132.5t-132.5 89t-162 32.5v0zM512 96q-73 0 -137 27.5t-112 75.5t-75.5 112t-27.5 137t27.5 137t75.5 112
t112 75.5t137 27.5t137 -27.5t112 -75.5t75.5 -112t27.5 -137t-27.5 -137t-75.5 -112t-112 -75.5t-137 -27.5v0zM562 391q15 13 25 23.5t15 17.5q9 11 15 21t10 20t6 20t2 21q0 19 -7 35t-20 29q-14 13 -32.5 19.5t-42.5 6.5q-22 0 -40 -5.5t-32 -16.5q-15 -12 -23.5 -30
t-11.5 -43l62 -6q1 13 4 22.5t9 15.5t13.5 9t16.5 3q10 0 17.5 -3t13.5 -8q5 -6 8 -14t3 -18q0 -9 -3 -18.5t-10 -19.5q-4 -7 -17 -20t-34 -32q-25 -24 -42.5 -43.5t-26.5 -33.5q-9 -15 -14 -30t-7 -31h216v57h-122q2 4 5 8t7 9l13 13t24 22v0z" />
    <glyph glyph-name="uniE602" unicode="&#xe602;" 
d="M512 864q-86 0 -162 -32.5t-132.5 -89t-89 -132.5t-32.5 -162t32.5 -162t89 -132.5t132.5 -89t162 -32.5t162 32.5t132.5 89t89 132.5t32.5 162t-32.5 162t-89 132.5t-132.5 89t-162 32.5v0zM512 96q-73 0 -137 27.5t-112 75.5t-75.5 112t-27.5 137t27.5 137t75.5 112
t112 75.5t137 27.5t137 -27.5t112 -75.5t75.5 -112t27.5 -137t-27.5 -137t-75.5 -112t-112 -75.5t-137 -27.5v0zM552 473q23 13 34.5 29.5t11.5 37.5q0 15 -5.5 28.5t-16.5 25.5q-14 14 -32.5 21.5t-40.5 7.5q-14 0 -25.5 -2.5t-22.5 -7.5t-19 -12t-14 -16
q-6 -8 -10.5 -19.5t-7.5 -26.5l56 -10q2 11 5 19t9 13q6 6 12.5 8.5t14.5 2.5t14.5 -2.5t11.5 -6.5q5 -5 7 -11.5t2 -14.5q0 -10 -3 -17.5t-10 -13.5q-6 -6 -16 -8.5t-22 -2.5l-7 -50q8 3 15.5 4t12.5 1q9 0 17 -3.5t14 -10.5q6 -6 9 -15.5t3 -20.5q0 -13 -3 -22.5
t-10 -16.5q-6 -7 -14 -11t-18 -4q-9 0 -16.5 3t-13.5 9t-10 15t-5 20l-60 -7q3 -20 11 -36.5t23 -29.5q14 -12 32 -18.5t40 -6.5q23 0 42 7.5t35 22.5q15 15 22.5 33t7.5 39q0 14 -4 26.5t-12 23.5q-8 10 -19 16.5t-25 9.5v0z" />
    <glyph glyph-name="uniE603" unicode="&#xe603;" 
d="M512 864q-86 0 -162 -32.5t-132.5 -89t-89 -132.5t-32.5 -162t32.5 -162t89 -132.5t132.5 -89t162 -32.5t162 32.5t132.5 89t89 132.5t32.5 162t-32.5 162t-89 132.5t-132.5 89t-162 32.5v0zM512 96q-73 0 -137 27.5t-112 75.5t-75.5 112t-27.5 137t27.5 137t75.5 112
t112 75.5t137 27.5t137 -27.5t112 -75.5t75.5 -112t27.5 -137t-27.5 -137t-75.5 -112t-112 -75.5t-137 -27.5v0zM582 597h-52l-139 -204v-53h131v-65h60v65h39v53h-39v204v0zM522 393h-74l74 110v-110v0z" />
    <glyph glyph-name="uniE604" unicode="&#xe604;" 
d="M512 864q-86 0 -162 -32.5t-132.5 -89t-89 -132.5t-32.5 -162t32.5 -162t89 -132.5t132.5 -89t162 -32.5t162 32.5t132.5 89t89 132.5t32.5 162t-32.5 162t-89 132.5t-132.5 89t-162 32.5v0zM512 96q-73 0 -137 27.5t-112 75.5t-75.5 112t-27.5 137t27.5 137t75.5 112
t112 75.5t137 27.5t137 -27.5t112 -75.5t75.5 -112t27.5 -137t-27.5 -137t-75.5 -112t-112 -75.5t-137 -27.5v0zM520 516q-10 0 -20.5 -3t-21.5 -8l10 55h116v57h-163l-31 -167l50 -7q10 12 22 18t25 6q11 0 19.5 -4t15.5 -11q6 -8 9.5 -19t3.5 -26t-3.5 -27t-9.5 -20
q-7 -8 -15 -11.5t-18 -3.5q-8 0 -15.5 3t-14.5 9q-6 6 -10 14t-5 19l-62 -7q3 -20 11.5 -36t22.5 -28t32 -18t40 -6q28 0 50 10.5t37 32.5q12 15 17.5 33t5.5 37q0 24 -7 43.5t-21 34.5q-15 15 -32 22.5t-38 7.5v0z" />
    <glyph glyph-name="uniE605" unicode="&#xe605;" 
d="M512 864q-86 0 -162 -32.5t-132.5 -89t-89 -132.5t-32.5 -162t32.5 -162t89 -132.5t132.5 -89t162 -32.5t162 32.5t132.5 89t89 132.5t32.5 162t-32.5 162t-89 132.5t-132.5 89t-162 32.5v0zM512 96q-73 0 -137 27.5t-112 75.5t-75.5 112t-27.5 137t27.5 137t75.5 112
t112 75.5t137 27.5t137 -27.5t112 -75.5t75.5 -112t27.5 -137t-27.5 -137t-75.5 -112t-112 -75.5t-137 -27.5v0zM529 490q-17 0 -31.5 -6.5t-25.5 -20.5q1 28 5.5 46t10.5 27q7 8 15.5 12.5t17.5 4.5q8 0 14 -2t10 -7q5 -4 7.5 -11t4.5 -16l59 7q-3 19 -11 34t-19 25
q-12 10 -27.5 15.5t-33.5 5.5q-26 0 -47 -10t-38 -29q-16 -20 -24 -51.5t-8 -75.5q0 -43 7.5 -74t23.5 -50t36 -28.5t44 -9.5q23 0 41.5 7.5t32.5 22.5q15 15 22 34.5t7 44.5q0 23 -7 42t-20 34q-14 14 -30.5 21.5t-35.5 7.5v0zM550 340q-5 -6 -12 -9.5t-16 -3.5t-17 4
t-14 12q-7 9 -10.5 20.5t-3.5 26.5q0 13 3 23.5t9 17.5t13.5 10.5t16.5 3.5t16.5 -3.5t14.5 -11.5q6 -7 9 -18.5t3 -27.5q0 -15 -3 -26t-9 -18v0z" />
    <glyph glyph-name="uniE606" unicode="&#xe606;" 
d="M512 864q-86 0 -162 -32.5t-132.5 -89t-89 -132.5t-32.5 -162t32.5 -162t89 -132.5t132.5 -89t162 -32.5t162 32.5t132.5 89t89 132.5t32.5 162t-32.5 162t-89 132.5t-132.5 89t-162 32.5v0zM568 239h-79v298q-21 -21 -46.5 -35.5t-55.5 -24.5v71q16 5 32.5 15t34.5 24
q19 14 31 30.5t19 35.5h64v-414v0z" />
    <glyph glyph-name="uniE607" unicode="&#xe607;" 
d="M512 864q-86 0 -162 -32.5t-132.5 -89t-89 -132.5t-32.5 -162t32.5 -162t89 -132.5t132.5 -89t162 -32.5t162 32.5t132.5 89t89 132.5t32.5 162t-32.5 162t-89 132.5t-132.5 89t-162 32.5v0zM651 306v-73h-277q2 21 9 40.5t18 38.5q11 18 33.5 43t55.5 56
q26 25 42.5 41.5t22.5 25.5q8 12 12 24.5t4 23.5q0 14 -3.5 24t-10.5 17t-16.5 10.5t-22.5 3.5q-12 0 -22 -3.5t-17 -11.5q-7 -7 -11 -19.5t-6 -29.5l-79 8q4 32 15 55.5t30 37.5q18 15 41 22t51 7q31 0 55 -8.5t41 -24.5q18 -16 26.5 -36.5t8.5 -45.5q0 -14 -2.5 -27
t-7.5 -26q-5 -12 -13 -25.5t-19 -27.5q-7 -9 -20 -22t-32 -30q-18 -17 -30 -28.5t-17 -17.5q-5 -5 -9 -10.5t-7 -11.5h157v0z" />
    <glyph glyph-name="uniE608" unicode="&#xe608;" 
d="M512 864q-86 0 -162 -32.5t-132.5 -89t-89 -132.5t-32.5 -162t32.5 -162t89 -132.5t132.5 -89t162 -32.5t162 32.5t132.5 89t89 132.5t32.5 162t-32.5 162t-89 132.5t-132.5 89t-162 32.5v0zM608 277q-20 -20 -44.5 -29.5t-54.5 -9.5q-28 0 -51 8t-42 25q-18 16 -29 37
t-13 47l76 9q2 -15 7 -26t13 -19q8 -7 17.5 -11t21.5 -4t22 4.5t19 13.5q8 10 12 22.5t4 28.5q0 14 -4 26t-12 21t-17.5 13t-21.5 4q-7 0 -16 -1.5t-20 -4.5l9 64q16 0 28 3.5t21 10.5q8 8 12 17.5t4 21.5q0 11 -3 19t-9 15q-6 6 -14 9t-19 3q-10 0 -18.5 -3.5t-15.5 -10.5
t-11.5 -17.5t-6.5 -23.5l-73 12q4 19 10 34t13 26q8 11 18.5 20t24.5 16q14 6 29.5 9t32.5 3q29 0 52 -9t41 -28q14 -15 21.5 -32t7.5 -36q0 -28 -15 -49.5t-44 -37.5q17 -4 31.5 -12.5t24.5 -21.5q11 -13 16 -29t5 -35q0 -27 -9.5 -50t-29.5 -42v0z" />
    <glyph glyph-name="uniE609" unicode="&#xe609;" 
d="M523 397v141l-95 -141h95v0zM512 864q-86 0 -162 -32.5t-132.5 -89t-89 -132.5t-32.5 -162t32.5 -162t89 -132.5t132.5 -89t162 -32.5t162 32.5t132.5 89t89 132.5t32.5 162t-32.5 162t-89 132.5t-132.5 89t-162 32.5v0zM651 328h-51v-83h-77v83h-169v69l180 262h66v-262
h51v-69v0z" />
    <glyph glyph-name="uniE60A" unicode="&#xe60a;" 
d="M512 864q-86 0 -162 -32.5t-132.5 -89t-89 -132.5t-32.5 -162t32.5 -162t89 -132.5t132.5 -89t162 -32.5t162 32.5t132.5 89t89 132.5t32.5 162t-32.5 162t-89 132.5t-132.5 89t-162 32.5v0zM625 298q-20 -27 -48 -40.5t-63 -13.5q-29 0 -52 7.5t-41 22.5
q-18 16 -29 36.5t-14 46.5l79 8q1 -13 6 -23.5t13 -18.5q9 -8 18.5 -12t20.5 -4q12 0 22.5 5t18.5 15q9 10 13.5 25.5t4.5 35.5q0 19 -4.5 33t-13.5 24q-8 9 -19 14t-25 5q-17 0 -32.5 -7.5t-28.5 -22.5l-64 9l41 215h209v-74h-150l-12 -70q13 6 26.5 9.5t27.5 3.5
q26 0 48.5 -9.5t40.5 -29.5q19 -19 28 -43.5t9 -55.5q0 -25 -7.5 -48t-22.5 -43v0z" />
    <glyph glyph-name="uniE60B" unicode="&#xe60b;" 
d="M514 447q-11 0 -21 -4.5t-18 -13.5q-7 -9 -11 -22t-4 -31q0 -19 4.5 -34t12.5 -25q9 -11 19.5 -16t21.5 -5t20 4t17 13q7 9 10.5 23t3.5 33q0 20 -4 35t-12 24q-7 10 -17 14.5t-22 4.5v0zM512 864q-86 0 -162 -32.5t-132.5 -89t-89 -132.5t-32.5 -162t32.5 -162
t89 -132.5t132.5 -89t162 -32.5t162 32.5t132.5 89t89 132.5t32.5 162t-32.5 162t-89 132.5t-132.5 89t-162 32.5v0zM610 269q-19 -20 -43 -29.5t-53 -9.5q-31 0 -56.5 12.5t-46.5 36.5q-20 24 -30 64t-10 95q0 57 10.5 97.5t31.5 65.5t48.5 37.5t60.5 12.5q24 0 43 -6.5
t35 -19.5q15 -13 25 -32.5t14 -44.5l-76 -8q-2 12 -5.5 20.5t-9.5 14.5q-6 5 -13.5 8t-17.5 3q-12 0 -23 -5.5t-19 -17.5q-9 -11 -14.5 -34t-7.5 -59q15 17 33 26t40 9q25 0 46.5 -9.5t38.5 -28.5q18 -19 27 -43t9 -54q0 -32 -9.5 -57t-27.5 -44v0z" />
    <glyph glyph-name="uniE60C" unicode="&#xe60c;" 
d="M864 -32h-704q-26 0 -45 19t-19 45v704q0 27 19 45.5t45 18.5h64v-32q0 -40 28 -68t68 -28t68 28t28 68v32h192v-32q0 -40 28 -68t68 -28t68 28t28 68v32h64q26 0 45 -18.5t19 -45.5v-704q0 -26 -19 -45t-45 -19v0zM864 576h-704v-544h704v544v0zM320 416h-96v96h96v-96
v0zM320 256h-96v96h96v-96v0zM320 96h-96v96h96v-96v0zM480 416h-96v96h96v-96v0zM480 256h-96v96h96v-96v0zM480 96h-96v96h96v-96v0zM640 416h-96v96h96v-96v0zM640 256h-96v96h96v-96v0zM640 96h-96v96h96v-96v0zM800 416h-96v96h96v-96v0zM800 256h-96v96h96v-96v0z
M800 96h-96v96h96v-96v0zM703 704q-26 0 -44.5 18.5t-18.5 44.5v66q0 26 18.5 44.5t44.5 18.5t44.5 -18.5t18.5 -44.5v-66q0 -26 -18.5 -44.5t-44.5 -18.5v0zM319 704q-26 0 -44.5 18.5t-18.5 44.5v66q0 26 18.5 44.5t44.5 18.5t44.5 -18.5t18.5 -44.5v-66
q0 -26 -18.5 -44.5t-44.5 -18.5v0z" />
    <glyph glyph-name="uniE60D" unicode="&#xe60d;" 
d="M352 864h-64v-128h64v128v0zM704 704h-64v-64h64v64v0zM352 704h-64v-64h64v64v0zM734 768l2 -160h-128v160h-224v-160h-128v160h-96v-768h672v768h-98v0zM352 98h-96v96h96v-96v0zM352 226h-96v96h96v-96v0zM352 354h-96v96h96v-96v0zM480 98h-96v96h96v-96v0zM480 226
h-96v96h96v-96v0zM480 354h-96v96h96v-96v0zM608 98h-96v96h96v-96v0zM608 226h-96v96h96v-96v0zM608 354h-96v96h96v-96v0zM736 98h-96v96h96v-96v0zM736 226h-96v96h96v-96v0zM736 354h-96v96h96v-96v0zM704 864h-64v-128h64v128v0z" />
    <glyph glyph-name="uniE60E" unicode="&#xe60e;" 
d="M681 255l22 22q19 19 19 45.5t-19 45.5l-39 39q10 17 17 34.5t12 36.5h43q26 0 45 18.5t19 45.5v32q0 27 -19 45.5t-45 18.5h-42q-5 19 -12 36.5t-16 33.5l37 38q19 19 19 45.5t-19 45.5l-22 22q-19 19 -45.5 19t-45.5 -19l-37 -37q-17 10 -35 17.5t-38 13.5v43
q0 26 -18.5 45t-45.5 19h-32q-27 0 -45.5 -19t-18.5 -45v-43q-20 -6 -38 -13.5t-35 -17.5l-37 37q-19 19 -45.5 19t-45.5 -19l-22 -22q-19 -19 -19 -45.5t19 -45.5l37 -38q-9 -16 -16 -33.5t-12 -36.5h-42q-26 0 -45 -18.5t-19 -45.5v-32q0 -27 19 -45.5t45 -18.5h42
q6 -19 13 -36.5t17 -34.5l-39 -39q-19 -19 -19 -45.5t19 -45.5l22 -22q19 -19 45.5 -19t45.5 19l40 39q16 -9 33.5 -16.5t36.5 -12.5v-41q0 -26 18.5 -45t45.5 -19h32q27 0 45.5 19t18.5 45v41q19 5 36.5 12.5t33.5 16.5l40 -39q19 -19 45.5 -19t45.5 19v0zM400 381
q-73 0 -124.5 51.5t-51.5 124.5t51.5 124.5t124.5 51.5t124.5 -51.5t51.5 -124.5t-51.5 -124.5t-124.5 -51.5v0zM400 639q-33 0 -56.5 -23.5t-23.5 -56.5t23.5 -56.5t56.5 -23.5t56.5 23.5t23.5 56.5t-23.5 56.5t-56.5 23.5v0zM802 36q-16 0 -27.5 -11t-11.5 -27
q0 -17 11.5 -28t27.5 -11t27.5 11t11.5 28q0 16 -11.5 27t-27.5 11v0zM965 36h-20q-3 9 -6.5 17.5t-7.5 16.5l18 18q9 9 9 22t-9 22l-11 11q-9 9 -22 9t-22 -9l-18 -18q-8 5 -17 8.5t-18 6.5v21q0 13 -9 22t-22 9h-16q-13 0 -22 -9t-9 -22v-21q-9 -3 -18 -6.5t-17 -8.5
l-18 18q-9 9 -22 9t-22 -9l-11 -11q-9 -9 -9 -22t9 -22l18 -18q-4 -8 -7.5 -16.5t-6.5 -17.5h-20q-13 0 -22 -9t-9 -22v-16q0 -13 9 -22t22 -9h21q2 -9 5.5 -17.5t8.5 -16.5l-19 -19q-9 -9 -9 -22t9 -22l11 -11q9 -9 22 -9t22 9l19 19q8 -4 16.5 -8t17.5 -6v-20q0 -13 9 -22
t22 -9h16q13 0 22 9t9 22v20q9 2 17.5 6t16.5 8l19 -19q9 -9 22 -9t22 9l11 11q9 9 9 22t-9 22l-19 19q5 8 8.5 16.5t5.5 17.5h21q13 0 22 9t9 22v16q0 13 -9 22t-22 9v0zM802 -89q-35 0 -60.5 25t-25.5 61q0 35 25.5 60t60.5 25t60.5 -25t25.5 -60q0 -36 -25.5 -61
t-60.5 -25v0z" />
    <glyph glyph-name="uniE60F" unicode="&#xe60f;" 
d="M887 332l-42 -158h-1l-46 -172l-297 80l-4 -1l-313 84l-1 2l-83 22l16 59h1l154 577h-1l17 61l547 -147v2l151 -41l-98 -366v-2v0zM908 656l-577 155l-113 -425l576 -155l114 425v0zM391 531l39 -65l99 94l51 -89l134 118l33 -274l-442 119l86 97v0zM420 596
q-19 5 -28.5 22t-4.5 36q5 18 22 28t35 5q19 -5 29 -22t5 -36t-22 -28.5t-36 -4.5v0zM692 817l-13 -4l-121 33l179 48l28 -104l-70 19l-3 8v0zM116 662l39 -148l-32 -122l-84 315l181 48l-19 -70l-85 -23v0zM226 8l-33 122l243 -65l-210 -57v0z" />
    <glyph glyph-name="uniE610" unicode="&#xe610;" horiz-adv-x="1040" 
d="M851 13l-84 23v233l80 -23l116 432l-586 157l-39 -144h-66l59 223l711 -191l-191 -710v0zM737 -64h-737v735h737v-735v0zM673 607h-609v-447h609v447v0zM251 288l73 118l73 -73l101 151l105 -260h-466l59 118l55 -54v0zM207 413q-19 0 -33 14t-14 34t14 34t33 14
q20 0 34 -14t14 -34t-14 -34t-34 -14v0z" />
    <glyph glyph-name="uniE611" unicode="&#xe611;" 
d="M898 366q0 -83 -31.5 -156.5t-86 -128t-128 -86t-156.5 -31.5t-156.5 31.5t-128 86t-86 128t-31.5 156.5q0 80 30 151.5t81.5 125.5t121 86.5t149.5 36.5v70h-30q-13 0 -22.5 9.5t-9.5 22.5t9.5 22.5t22.5 9.5h96q14 0 23 -9.5t9 -22.5t-9 -22.5t-23 -9.5h-34v-69
q81 -3 152 -35t124 -86.5t83.5 -126.5t30.5 -153v0zM476 643v73q-75 -4 -139 -37t-110 -86l53 -53l-22 -23l-50 50q-31 -43 -48.5 -94.5t-17.5 -108.5q0 -3 0.5 -5.5l0.5 -2.5h78v-32h-76q6 -50 25 -95t48 -83l40 40l22 -22l-41 -42q45 -48 106 -77.5t131 -33.5v88h32v-88
q72 2 134.5 31.5t108.5 77.5l-45 46l22 22l44 -44q30 38 49.5 84t25.5 96h-82v32h84q0 2 0.5 3.5t0.5 4.5q0 58 -18.5 111t-50.5 97l-53 -53l-22 23l55 55q-47 53 -112 85t-141 35v-74h-32v0zM510 356h113q6 0 11 -5t5 -11q0 -7 -5 -11.5t-11 -4.5h-129q-7 0 -11.5 4.5
t-4.5 11.5v223q0 6 4.5 11t11.5 5t11.5 -5t4.5 -11v-207v0z" />
    <glyph glyph-name="uniE612" unicode="&#xe612;" 
d="M544 482l0.5 60t0.5 132v131.5t-1 59.5q83 0 153 -28.5t121.5 -80t80 -121.5t28.5 -153q0 -1 -59.5 -1t-131.5 0.5t-132 0.5h-60v0zM896 403q0 -86 -33 -161.5t-89.5 -132t-132 -89t-161.5 -32.5t-161.5 32.5t-132 89t-89 132t-32.5 161.5t32.5 162t89 132t132 89
t161.5 33q8 0 16 -0.5t16 -1.5v-367h381q1 -11 2 -23.5t1 -23.5v0zM862 416h-382v371q-79 0 -149 -30.5t-122 -82.5t-82.5 -121.5t-30.5 -149.5q0 -79 30.5 -149t82.5 -122t122 -82t149 -30t149 30t122 82t82.5 122t30.5 149q0 31 -1 22l-1 -9v0z" />
    <glyph glyph-name="uniE613" unicode="&#xe613;" 
d="M491 328q-1 0 -16 25.5t-33 56t-33.5 56t-15.5 26.5q-15 33 -21 63t19 45l-139 234q-14 -10 -34 -43.5t-24.5 -94.5t17.5 -151.5t94 -214.5q75 -131 146 -199t129.5 -96t99 -26t55.5 10l-136 229q-24 -14 -47.5 7.5t-60.5 72.5v0zM828 108v0l-16.5 28t-36.5 61.5
t-36.5 61.5l-16.5 28q-6 10 -18 13t-23 -3l-64 -38l135 -230l32.5 19.5l32.5 19.5v0q11 6 14 18t-3 22v0zM473 648v1q11 6 14 18t-3 22v0l-17 29t-37.5 63t-37.5 63l-17 29q-6 10 -18 13t-23 -3l-64 -38l138 -235l32.5 19l32.5 19v0z" />
    <glyph glyph-name="uniE614" unicode="&#xe614;" 
d="M541 673l40 190h-203l41 -190h122v0zM418 638l-134 -429l203 -169l188 169l-132 429h-125v0zM603 578l94 -258h56v58l-150 200v0z" />
    <glyph glyph-name="uniE615" unicode="&#xe615;" 
d="M571 399l-322 -322q-18 -19 -44.5 -18.5t-45.5 18.5q-19 19 -19 45.5t19 45.5l24 24l-69 69q-10 10 -10 23t10 23q9 9 22.5 9t22.5 -10l69 -69l23 23l-24 24q-10 9 -10 22.5t10 22.5q9 9 22 9t23 -9l24 -24l22 22l-69 70q-9 9 -9 22t9 23q9 9 22.5 9t22.5 -9l70 -70
l116 117q-28 40 -44 82t-18 82t9.5 75.5t37.5 61.5q30 31 73 41.5t90.5 2.5t96 -33.5t90.5 -67.5t68 -90.5t33.5 -96t-3 -90.5t-41.5 -73q-26 -26 -61.5 -37.5t-75.5 -9.5t-82.5 18t-81.5 45v0zM747 666q-37 37 -80 47t-67 -13q-23 -24 -13 -67t47 -80q38 -38 81 -48t66 14
q24 23 14 66t-48 81v0z" />
    <glyph glyph-name="uniE616" unicode="&#xe616;" 
d="M562 380q-38 32 -61 77.5t-23 99.5q0 27 6.5 51.5t17.5 47.5l-35 35l-213 -213q29 -24 26.5 -46.5t-37.5 -45.5l285 -285h140q13 0 22.5 -9.5t9.5 -22.5v-33h-152h-1v0h-237v32q0 14 9.5 23.5t22.5 9.5h140l-269 269q-40 -17 -59.5 -0.5t-18.5 67.5q1 54 23.5 68.5
t67.5 -9.5l218 218l-22 22q-9 9 -9 22.5t9 23.5l69 69q10 9 23.5 9t23.5 -9l83 -83q20 8 41.5 12.5t43.5 4.5q57 0 104.5 -23.5t78.5 -64.5q1 -1 -50 -50.5t-112.5 -108.5t-112.5 -108.5t-52 -49.5v0zM814 584l20.5 -41.5t-20.5 -82.5t-82 -20.5l-41 20.5l123 124v0z" />
    <glyph glyph-name="uniE617" unicode="&#xe617;" horiz-adv-x="1168" 
d="M1063 706l105 -15l-93 -49l68 -62l-98 12l60 -126l-121 92l-101 -121l47 150l-147 -79l103 112l-7 27q-21 -10 -49.5 -18.5t-58.5 -7.5q-41 0 -92 27.5t-111 78.5l-55.5 48.5t-113.5 48.5q-59 0 -65 -60t-6 -61h89v-81q43 -16 78 -44.5t60.5 -65t39 -81t13.5 -92.5
q0 -63 -23.5 -118.5t-65 -97t-97 -65.5t-118.5 -24t-118.5 24t-96.5 65.5t-65 97t-24 118.5q0 48 14 92.5t39.5 81t61 65t78.5 44.5v81h80q0 1 1 50.5t36 86.5q18 19 40.5 28.5t49.5 9.5q40 0 76.5 -17.5t64.5 -38.5t45 -38.5l17 -17.5q52 -45 95 -68t76 -23q14 0 37 6.5
t37 11.5l-58 45l100 -7l-77 119l126 -89l15 84l23 -77l93 112l-21 -124l108 25l-94 -75v0z" />
    <glyph glyph-name="uniE618" unicode="&#xe618;" 
d="M418 794l-185 49q-13 4 -24.5 -3t-14.5 -19l-191 -711q-3 -13 3.5 -24.5t19.5 -15.5l185 -49q13 -4 24.5 3t14.5 19l191 711q3 13 -3.5 24.5t-19.5 15.5v0zM249 162q-10 -39 -44.5 -58.5t-73.5 -9.5q-38 10 -58 44.5t-9 73.5q10 38 44.5 58t72.5 9q39 -10 58.5 -44.5
t9.5 -72.5v0zM286 299l-186 50l100 371l185 -50l-99 -371v0zM606 224q-20 0 -34 -14t-14 -34t14 -34t34 -14t34 14t14 34t-14 34t-34 14v0zM346 647l-124 33l-8 -31l124 -33l8 31v0zM321 555l8 30l-123 34l-9 -31l124 -33v0zM168 231q-19 5 -36 -5t-23 -29q-5 -19 5 -36
t29 -23q20 -5 37 5t22 29q5 20 -5 37t-29 22v0zM958 672h-128v-32h128v32v0zM958 544h-128v-32h128v32v0zM958 608h-128v-32h128v32v0zM894 224q-20 0 -34 -14t-14 -34t14 -34t34 -14t34 14t14 34t-14 34t-34 14v0zM990 832h-192q-13 0 -22.5 -9.5t-9.5 -22.5v-736
q0 -13 9.5 -22.5t22.5 -9.5h192q13 0 22.5 9.5t9.5 22.5v736q0 13 -9.5 22.5t-22.5 9.5v0zM894 80q-40 0 -68 28t-28 68t28 68t68 28t68 -28t28 -68t-28 -68t-68 -28v0zM990 320h-192v384h192v-384v0zM670 672h-128v-32h128v32v0zM670 544h-128v-32h128v32v0zM702 832h-192
q-13 0 -22.5 -9.5t-9.5 -22.5v-736q0 -13 9.5 -22.5t22.5 -9.5h192q13 0 22.5 9.5t9.5 22.5v736q0 13 -9.5 22.5t-22.5 9.5v0zM606 82q-40 0 -68 28t-28 68t28 68t68 28t68 -28t28 -68t-28 -68t-68 -28v0zM702 320h-192v384h192v-384v0zM670 608h-128v-32h128v32v0zM181 526
l123 -33l9 31l-124 33l-8 -31v0z" />
    <glyph glyph-name="uniE619" unicode="&#xe619;" 
d="M898 380v-253q0 -13 -7.5 -22.5t-24.5 -9.5q-4 0 -13 8t-21 21v678q12 13 21 20.5t13 7.5q18 0 25 -9t7 -22v-260q33 0 58.5 -23.5t25.5 -55.5q0 -33 -25.5 -56t-58.5 -24v0zM384 319q1 0 1 45v99t-0.5 99l-0.5 45q83 0 149 16.5t117 40.5t89 52.5t64 53.5v-614
q-26 25 -64 53.5t-89 52.5t-117 40.5t-149 16.5v0zM257 66l-64 253h-64l-10.5 28.5t-17.5 67.5h-22h-14q-13 0 -22.5 9.5t-9.5 22.5v32q0 13 9.5 22.5t22.5 9.5h14h22q7 39 17.5 67.5l10.5 28.5h224v-288h-64l8 -32h32l16 -64h-32l40 -157h-96v0z" />
    <glyph glyph-name="uniE61A" unicode="&#xe61a;" 
d="M179 364q-47 -47 -47 -113t47 -113l23 -23q47 -47 113 -47t113 47l181 181l-249 249l-181 -181v0zM406 138q-38 -38 -91 -38t-90 38l-23 22q-38 38 -38 91t38 91l158 158l204 -204l-158 -158v0zM813 726l-23 23q-47 47 -113 47t-113 -47l-181 -181l249 -249l181 181
q47 47 47 113t-47 113v0z" />
    <glyph glyph-name="uniE61B" unicode="&#xe61b;" 
d="M568 511q-30 -13 -79.5 7l-49.5 20q-39 23 -37.5 -4.5t18.5 -70t37.5 -81.5l20.5 -39l4 -41t17 -49q113 158 106 215t-37 43v0zM514 312q-5 0 -15 24.5t-20.5 56t-17 62t-4.5 42.5q30 -3 56 -9.5t43 2.5q23 11 21.5 -15.5t-14 -62.5t-28.5 -68t-21 -32v0zM638 194
q2 87 22.5 151t44.5 115.5t43.5 97.5t19.5 99q0 44 -15.5 92t-46.5 87.5t-78.5 65t-111.5 25.5t-112.5 -24.5t-81.5 -63.5t-49.5 -87.5t-16.5 -95.5q0 -54 20 -100.5t44 -98t44 -115t20 -150.5h129l61.5 1t63.5 1v0zM410 223q0 82 -19.5 141t-42.5 107t-42.5 91.5
t-19.5 93.5q0 44 15 87.5t44 77.5t72 55.5t99 21.5t97.5 -22t69 -57t41.5 -78t14 -84q0 -49 -19 -92t-42.5 -92t-43 -108.5t-20.5 -141.5h-51.5h-48.5h-103v0zM624 160h-224q-6 0 -11 -5t-5 -11q0 -7 5 -11.5t11 -4.5h224q7 0 11.5 4.5t4.5 11.5q0 6 -4.5 11t-11.5 5v0z
M624 96h-224q-6 0 -11 -5t-5 -11q0 -7 5 -11.5t11 -4.5h224q7 0 11.5 4.5t4.5 11.5q0 6 -4.5 11t-11.5 5v0zM416 31v-8v-21q0 -14 9 -23.5t23 -9.5h129q13 0 22 9.5t9 23.5q0 13 -1 21l-1 8h-190v0z" />
    <glyph glyph-name="uniE61C" unicode="&#xe61c;" 
d="M449 662h125v48h-125v-48v0zM574 647h-125l-32.5 -35t-71 -91.5t-70.5 -128.5t-32 -147q0 -79 33.5 -124t74 -68t74 -29l33.5 -6l37.5 -4t67.5 4l34 7t75 31t75 68.5t34 119.5q0 76 -32.5 148t-71.5 128.5t-71 91.5l-32 35v0zM583 220q-4 -8 -9 -14t-12 -12
q-6 -5 -14 -8.5t-16 -6.5q-1 0 -2.5 -0.5t-2.5 -0.5v-35h-31v31h-1v0q-7 0 -13.5 0.5t-11.5 1.5q-6 1 -11 2.5t-10 2.5q-4 2 -7.5 3.5t-6.5 3.5q-3 1 -5 2.5t-4 3.5q-1 1 -2 3t-1 4q-1 2 -1.5 5.5t-0.5 8.5q0 3 0.5 5.5t0.5 5.5q0 2 0.5 3.5t0.5 2.5q1 2 1.5 2.5l1.5 1.5
q0 1 1 1h2t3 -1t5 -2q2 -2 5.5 -3.5t7.5 -3.5t9 -4l10 -4q6 -1 12.5 -2t13.5 -1q5 0 9 0.5t8 1.5t7 3l6 4t5 4.5t3 5.5t2 6.5t1 7.5t-1.5 8t-3.5 7t-5.5 6t-7.5 5q-3 3 -7.5 5t-9.5 4q-5 3 -10 5t-10 5q-5 2 -10 4.5t-10 5.5t-9.5 7t-8.5 8t-7 9t-5 11q-3 6 -4 13t-1 15
q0 9 1.5 17.5t5.5 15.5q3 7 7.5 12.5t10.5 10.5t13 8t15 6l8 2t9 1v33h31v-33h2h2q5 -1 9 -2l8 -2t7.5 -2.5t6.5 -2.5q3 -2 5.5 -3t3.5 -2t1.5 -2l0.5 -1q1 -1 1 -2v-2q1 -1 1 -2.5v-3.5v-4v-5v-5v-5q0 -1 -0.5 -3t-0.5 -3t-0.5 -2t-1.5 -2t-1.5 -1h-1.5q-2 0 -3.5 0.5
t-3.5 2.5q-3 1 -6 2.5t-6 3.5q-4 1 -8 2.5t-8 3.5q-5 1 -10 1.5t-11 0.5q-4 0 -7.5 -0.5t-7.5 -1.5q-3 -1 -5.5 -2.5t-4.5 -2.5q-2 -2 -4 -4.5t-3 -4.5q-1 -3 -1.5 -5.5t-0.5 -5.5q0 -5 1.5 -8.5t3.5 -6.5t5.5 -6t7.5 -5q3 -3 7.5 -5t9.5 -5q5 -2 10.5 -4t10.5 -5
q5 -2 10 -5l10 -6t9.5 -6.5t8.5 -7.5t7 -9t6 -11q2 -6 3 -12.5t1 -14.5q0 -10 -1.5 -19t-5.5 -17v0zM573 725l63 158l-23 -17t-40 -17q-18 0 -40 16.5l-22 16.5l-23 -16.5t-40 -16.5q-18 0 -40 16l-22 16l64 -156h123v0z" />
    <glyph glyph-name="uniE61D" unicode="&#xe61d;" 
d="M889 706q23 -55 12 -116t-56 -107q-50 -49 -118 -57t-126 25l-57 -62l41 -40l24 24q9 9 22 9t22 -9l195 -197q9 -9 9 -22t-9 -22l-89 -89q-9 -9 -22.5 -9t-22.5 9l-194 197q-10 9 -10 22t10 22l22 22l-39 38l-269 -294q-18 -18 -44 -18t-45 18l-22 23q-18 18 -18 44
t18 44l307 257l-204 204h-64l-75 120l60 60l123 -75v-63l206 -207l60 51q-44 60 -39 135t59 129q45 45 105.5 56t116.5 -11l-132 -130l111 -111l132 130v0zM197 130q-9 9 -22 9t-23 -9q-9 -9 -9 -22t9 -22q10 -10 23 -10t22 10q9 9 9 22t-9 22v0z" />
    <glyph glyph-name="uniE61E" unicode="&#xe61e;" 
d="M832 544h-320v-64h-64v96h384v192h-32v-96q0 -13 -9.5 -22.5t-22.5 -9.5h-576q-13 0 -22.5 9.5t-9.5 22.5v128q0 13 9.5 22.5t22.5 9.5h576q13 0 22.5 -9.5t9.5 -22.5h64v-256h-32v0zM736 800h-512v-32h512v32v0zM544 128q0 -26 -19 -45t-45 -19t-45 19t-19 45v320h128
v-320v0zM480 173q-13 0 -22.5 -9t-9.5 -23q0 -13 9.5 -22.5t22.5 -9.5t22.5 9.5t9.5 22.5q0 14 -9.5 23t-22.5 9v0z" />
    <glyph glyph-name="uniE61F" unicode="&#xe61f;" 
d="M882 691q-16 -20 -45 -55.5t-64.5 -78.5t-73.5 -90t-74 -90l-120 121q41 37 84.5 75.5t83.5 74t72.5 64.5t50.5 45q65 57 115.5 87t63.5 16q8 -8 -14 -54t-79 -115v0zM604 351q-27 -34 -50 -61.5t-37 -45.5l-142 138q17 16 44.5 40.5t61.5 53.5l123 -125v0zM496 218v1
q-31 -119 -105 -155t-150.5 -31.5t-135 28l-58.5 23.5l77 8.5t77 115.5q0 104 71.5 128t78.5 24l145 -142v0v0v0z" />
    <glyph glyph-name="uniE620" unicode="&#xe620;" 
d="M212 383l-104 -318l139 140q-7 18 -4.5 44t17.5 41q19 20 47.5 19.5t47.5 -20.5q20 -19 20.5 -48t-18.5 -48q-15 -15 -42.5 -17t-46.5 6l-138 -139l310 109l113 204l-137 136l-204 -109v0zM735 853l-30.5 -30.5t-69 -69.5t-74.5 -75t-48 -47q-22 -22 -33.5 -82l-11.5 -60
l86 -86l58.5 11.5t81.5 35.5q12 11 48 47.5t75 75t69 69l30 30.5l-181 181v0z" />
    <glyph glyph-name="uniE621" unicode="&#xe621;" horiz-adv-x="1100" 
d="M804 539q0 62 -31.5 116.5t-86 95t-128 64t-156.5 23.5t-156.5 -23.5t-128 -64t-86 -95t-31.5 -116.5q0 -75 45 -138t120 -104l-12.5 -23t-27.5 -50l-27.5 -49.5l-12.5 -22.5l38 14t83.5 31.5t83.5 32t39 14.5q18 -2 36 -3.5t37 -1.5q83 0 156.5 24t128 64.5t86 95
t31.5 116.5v0zM1100 445q0 62 -29 116.5t-78 95t-113 64t-133 23.5q99 -98 100 -194.5t-56 -173.5t-152.5 -125t-190.5 -48l42 -28.5t208 -28.5q19 0 37.5 1.5t36.5 3.5l38 -14.5t83.5 -32t83.5 -32l38 -14.5l-12.5 22.5t-27.5 50t-27.5 50l-12.5 22.5q75 41 120 104.5
t45 137.5v0z" />
    <glyph glyph-name="uniE622" unicode="&#xe622;" 
d="M192 64h96v288h-96v-288v0zM576 384h-160q-13 0 -22.5 -9.5t-9.5 -22.5v-96q0 -13 9.5 -22.5t22.5 -9.5h160q13 0 22.5 9.5t9.5 22.5v96q0 13 -9.5 22.5t-22.5 9.5v0zM449 257h-32v94h32v-94v0zM511 257h-32v94h32v-94v0zM577 257h-32v94h32v-94v0zM544 832h-96v-416h96
v416v0zM800 832h-96v-160h96v160v0zM288 832h-96v-256h96v256v0zM704 64h96v384h-96v-384v0zM448 64h96v128h-96v-128v0zM320 544h-160q-13 0 -22.5 -9.5t-9.5 -22.5v-96q0 -13 9.5 -22.5t22.5 -9.5h160q13 0 22.5 9.5t9.5 22.5v96q0 13 -9.5 22.5t-22.5 9.5v0zM193 417h-32
v94h32v-94v0zM257 417h-32v94h32v-94v0zM321 417h-32v94h32v-94v0zM832 640h-160q-13 0 -22.5 -9.5t-9.5 -22.5v-96q0 -13 9.5 -22.5t22.5 -9.5h160q13 0 22.5 9.5t9.5 22.5v96q0 13 -9.5 22.5t-22.5 9.5v0zM705 513h-32v94h32v-94v0zM767 513h-32v94h32v-94v0zM833 513h-32
v94h32v-94v0z" />
    <glyph glyph-name="uniE623" unicode="&#xe623;" 
d="M738 530l15 18t-6 39t-38.5 6.5l-17.5 -14.5l-223 -223l-40 -37t-79 2q-38 40 -1.5 79.5l36.5 39.5l312 312l54 38t116 -24t24 -116l-38 -54l-423 -423l-23 -22.5t-60.5 -40t-84 -16.5t-93.5 48t-47.5 93t17 83t40.5 60l23 23l321 321l14.5 18.5t-5.5 38.5t-38.5 5.5
l-18.5 -14.5l-368 -368l-19.5 -26.5t-31 -69.5t-1.5 -98.5t68 -113.5t113.5 -68t98.5 1.5t69.5 31l26.5 19.5l506 506l35.5 71t-55.5 161q-90 91 -161 55.5l-71 -35.5l-372 -372l-43 -58t33 -134t133 -32l57 44l246 246v0z" />
    <glyph glyph-name="uniE624" unicode="&#xe624;" 
d="M179 318l476 477l204 -204l-477 -477l-203 204v0zM677 680l-22 22l-384 -383l23 -23l383 384v0zM722 635l-23 22l-383 -383l22 -22l384 383v0zM766 590l-22 23l-383 -384l22 -22l383 383v0zM746 885q19 18 45.5 18.5t44.5 -18.5l113 -112q18 -19 18 -45.5t-19 -45.5
l-69 -69l-202 202l69 70v0zM163 292l193 -193l-169 -60l-84 84l60 169v0zM155 28l-98 -35l35 98l63 -63v0z" />
    <glyph glyph-name="uniE625" unicode="&#xe625;" 
d="M929 752l-79 -79l-113 113l79 79q23 23 56 23t57 -23q23 -24 23 -57t-23 -56v0zM884 662q4 5 11 5t11 -5q5 -5 5 -11.5t-5 -11.5l-293 -293q-5 -5 -11.5 -5t-10.5 5q-5 5 -5 11.5t5 11.5l191 191l-158 158l68 68l158 -158l34 34v0zM624 673l113 -113l-451 -451l-113 113
l451 451v0zM72 8l79 192l113 -113l-192 -79v0z" />
    <glyph glyph-name="uniE626" unicode="&#xe626;" 
d="M688 288q46 0 79 -42t33 -102q0 -59 -33 -101.5t-79 -42.5t-79 42.5t-33 101.5q0 36 12.5 66.5t33.5 50.5l-110 158l-110 -158q21 -20 33.5 -50.5t12.5 -66.5q0 -59 -33 -101.5t-79 -42.5t-79 42.5t-33 101.5q0 60 33 102t79 42q5 0 9.5 -0.5t9.5 -1.5l111 200l-116 166
q-71 123 -45.5 183.5l25.5 60.5l182 -328l182 328l25.5 -60.5t-45.5 -183.5l-116 -166l111 -200q5 1 9.5 1.5t9.5 0.5v0zM336 225q-26 0 -45 -23.5t-19 -56.5t19 -56.5t45 -23.5t45 23.5t19 56.5t-19 56.5t-45 23.5v0zM512 510q-13 0 -22.5 -9.5t-9.5 -22.5q0 -14 9.5 -23
t22.5 -9t22.5 9t9.5 23q0 13 -9.5 22.5t-22.5 9.5v0zM624 145q0 -33 19 -56.5t45 -23.5t45 23.5t19 56.5t-19 56.5t-45 23.5t-45 -23.5t-19 -56.5v0z" />
    <glyph glyph-name="uniE627" unicode="&#xe627;" 
d="M0 160v576h1024v-576h-1024v0zM64 674v-450h896v450h-896v0zM672 448q0 80 -47 136t-113 56h416v-384h-416q66 0 113 56t47 136v0zM800 384q20 0 34 19t14 45t-14 45t-34 19t-34 -19t-14 -45t14 -45t34 -19v0zM580 529l-1.5 -3l-0.5 -1q-1 -1 -2 -1h-2t-2.5 0.5l-4.5 1.5
q-2 2 -5 3.5t-6 3.5q-4 1 -8 2.5t-9 2.5q-4 2 -9 2.5t-11 0.5q-4 0 -8 -0.5t-7 -1.5t-5.5 -2.5t-5.5 -3.5q-2 -2 -3.5 -4t-2.5 -5q-1 -2 -1.5 -5t-0.5 -5q0 -5 1 -8.5t4 -6.5q2 -4 5 -6.5t7 -5.5q4 -2 8.5 -4.5t9.5 -4.5t10 -4.5t11 -4.5q5 -2 10 -5l10 -6t9.5 -6.5
t8.5 -7.5q4 -5 7 -10t5 -10q3 -6 4 -13t1 -14q0 -11 -2 -20t-5 -16q-4 -8 -9.5 -14.5t-11.5 -11.5q-7 -5 -14.5 -9t-15.5 -6q-2 -1 -3 -1h-2v-35h-31v30h-1h-1q-6 0 -12.5 0.5t-11.5 2.5q-6 1 -11 2t-10 3q-4 1 -8 3l-6 3q-3 2 -5.5 3.5t-3.5 2.5q-1 2 -2 3.5t-2 4.5
q0 2 -0.5 5.5t-0.5 8.5v5.5t1 4.5q0 2 0.5 4t0.5 3t1 2t1 2q1 0 2 0.5t2 0.5t3 -1t5 -2q2 -2 5.5 -4t7.5 -4t8.5 -3.5l10.5 -3.5q5 -2 11.5 -2.5t14.5 -0.5q4 0 8.5 0.5t8.5 1.5t7 2.5t6 3.5q2 3 4 5.5t4 5.5q1 3 2 6.5t1 7.5t-1.5 8t-3.5 7q-3 3 -6 5.5t-7 5.5q-4 2 -8 4.5
t-9 4.5t-10 4.5t-10 4.5l-11 5.5t-10 5.5q-4 3 -8.5 6.5t-8.5 8.5q-4 4 -7 9t-5 11q-3 6 -4 12.5t-1 15.5t1.5 17t5.5 15q3 7 7.5 13t10.5 11q6 4 13 7.5t15 6.5q4 1 8 1.5t9 1.5v33h31v-33h2h2q4 -1 8.5 -2t8.5 -2t7.5 -2.5t6.5 -2.5q3 -2 5 -3t3 -2l2 -2t1 -2l0.5 -1
t0.5 -2q1 -2 1 -3v-3v-4v-5v-5.5v-4.5t-0.5 -3.5t-0.5 -2.5v0zM352 448q0 -80 47 -136t113 -56h-416v384h416q-66 0 -113 -56t-47 -136v0zM224 512q-20 0 -34 -19t-14 -45t14 -45t34 -19t34 19t14 45t-14 45t-34 19v0z" />
    <glyph glyph-name="uniE628" unicode="&#xe628;" horiz-adv-x="1216" 
d="M1152 224l2 547l-994 -1v63h1056v-609h-64v0zM1120 127l-64 1l2 546h-994v62h1056v-609v0zM1026 63h-1026v577h1026v-577v0zM962 578h-898v-451h898v451v0zM865 176q0 -5 1 -9t3 -7h-356q66 0 113 56t47 136t-47 136t-113 56h356q-2 -4 -3 -8t-1 -8q0 -20 14.5 -34
t33.5 -14q5 0 9 1l8 2v-263q-4 2 -8 3t-9 1q-19 0 -33.5 -14.5t-14.5 -33.5v0zM801 419q-20 0 -34 -19t-14 -46q0 -26 14 -45t34 -19t34 19t14 45q0 27 -14 46t-34 19v0zM580 467l0.5 -1t0.5 -2t0.5 -2.5t0.5 -3.5v-4v-5v-5.5v-4.5t-0.5 -3.5t-0.5 -2.5l-1.5 -3l-0.5 -1
q-1 -1 -2 -1h-2t-2.5 0.5l-4.5 1.5q-2 2 -5 3.5t-7 2.5q-3 2 -7 3.5t-9 2.5q-4 2 -9.5 2.5t-10.5 0.5q-4 0 -8 -0.5t-7 -1.5t-6 -2.5t-5 -3.5t-3.5 -4t-2.5 -5q-1 -2 -1.5 -5t-0.5 -6q0 -4 1 -7.5t3 -7.5q3 -3 6 -5.5t7 -5.5q4 -2 8.5 -4.5t9.5 -4.5t10 -4.5t10 -4.5
q6 -2 11 -5l10 -6t9.5 -6.5t8.5 -8.5q4 -4 7 -9t5 -11q3 -5 4 -12t1 -15q0 -10 -2 -19t-5 -17q-4 -7 -9.5 -13.5t-11.5 -11.5q-7 -5 -14.5 -9t-16.5 -7h-2t-2 -1v-35h-32v31h-0.5h-0.5q-7 0 -13 0.5t-12 1.5t-11 2.5t-9 2.5q-5 2 -8.5 3.5t-6.5 3.5t-5 3.5t-3 2.5
q-2 1 -2.5 3t-1.5 4q-1 3 -1 6.5v7.5v6.5v4.5t0.5 3.5t1.5 3.5q0 1 0.5 2t1.5 1l1.5 1.5t1.5 0.5q2 0 4 -1t4 -3q3 -1 6.5 -3t7.5 -4t8.5 -4t10.5 -3q5 -2 11.5 -3t13.5 -1q5 0 9.5 0.5t8.5 2.5q3 1 6.5 2.5t6.5 3.5q2 2 4 4.5t4 6.5q1 3 1.5 6.5t0.5 6.5q0 5 -1 8.5t-3 7.5
q-3 3 -6 5.5t-7 5.5q-4 2 -8 4.5t-9 4.5t-10 4.5t-11 4.5q-5 2 -10 5l-10 6t-9 6.5t-8 8.5q-4 4 -7 9t-6 11q-2 5 -3.5 12t-1.5 16t2 17t5 15q4 7 8.5 13t10.5 11q6 4 13 7.5t15 6.5q4 1 8 1.5t8 1.5v33h32v-33h2h2q4 -1 8.5 -2t8.5 -2t7.5 -2.5t6.5 -2.5q3 -2 5 -3t3 -2
l2 -2t1 -2v0zM353 352q0 -80 46.5 -136t113.5 -56h-356q1 3 2 7t1 9q0 19 -14 33.5t-34 14.5q-4 0 -8 -1t-8 -3v263l8 -2t8 -1q20 0 34 14t14 34q0 4 -1 8l-2 8h356q-67 0 -113.5 -56.5t-46.5 -135.5v0zM224 419q-20 0 -34 -19t-14 -46q0 -26 14 -45t34 -19t34 19t14 45
q0 27 -14 46t-34 19v0z" />
    <glyph glyph-name="uniE629" unicode="&#xe629;" 
d="M512 356l-130 107l-283 -334h828l-284 338l-131 -111v0zM958 767h-890l445 -374l445 374v0zM663 484l297 -355v606l-297 -251v0zM64 735v-606l297 355l-297 251v0z" />
    <glyph glyph-name="uniE62A" unicode="&#xe62a;" 
d="M513 693l-12 21.5t-37.5 47t-65 46.5t-93.5 21q-59 0 -103.5 -22.5t-75 -60t-46 -85.5t-15.5 -98q0 -83 70 -171t154 -160.5t154 -118.5l70 -46l70 46t153 118t153 160t70 172q0 51 -16 99t-46 85t-74.5 59.5t-101.5 22.5t-96.5 -21t-64 -46.5t-36 -47l-11.5 -21.5v0z
" />
    <glyph glyph-name="uniE62B" unicode="&#xe62b;" horiz-adv-x="1200" 
d="M960 58q-51 0 -95.5 19t-77.5 52t-52 77.5t-19 95.5q0 74 40 133.5t103 88.5l-32 73l5 -13l-222 -298v-60h33v-32h-98v32h32v33l-92 8q-6 -44 -27 -82.5t-53.5 -66.5t-73.5 -44t-87 -16q-51 0 -95 19t-77.5 52t-52.5 77.5t-19 95.5q0 50 19 94.5t52.5 77.5t78 52.5
t94.5 19.5q26 0 51 -5.5t48 -15.5l61 153l-28 77h-17h-15q-23 0 -23 16.5v16.5l4 14t21 14t24 -10t35 -10q26 0 55.5 -5l29.5 -5l6 -15.5t-26 -15.5h-30.5h-30.5l23 -83h354l-28 63h-22v33h130v-33h-73l95 -200q17 5 35 8t37 3q51 0 95 -19.5t77.5 -52.5t52.5 -77.5
t19 -94.5q0 -51 -19 -95.5t-52.5 -77.5t-78 -52t-94.5 -19v0zM244 513q-44 0 -82.5 -16.5t-67 -45t-45 -67t-16.5 -82.5t16.5 -82.5t45 -67t67 -45.5t82.5 -17q80 0 139 52t70 129l-169 17q-2 -11 -11 -19t-21 -8q-13 0 -22.5 9.5t-9.5 23.5q0 13 9.5 22.5t22.5 9.5
q3 0 5.5 -0.5t5.5 -1.5l68 171q-20 8 -42 13t-45 5v0zM293 316l162 -17q0 1 0.5 1.5t0.5 1.5q0 56 -27.5 103t-71.5 75l-64 -164v0zM418 637l-49 -126q53 -32 86 -87.5t33 -121.5v-3.5v-3.5l55 -5l-125 347v0zM799 659v-19h-356l130 -347l246 322l-20 44v0zM960 513
q-15 0 -30 -2t-29 -6l76 -174q12 -2 20 -10.5t8 -20.5q0 -14 -9.5 -23.5t-23.5 -9.5q-13 0 -22.5 9.5t-9.5 23.5q0 6 2.5 12t6.5 10l-76 172q-55 -25 -90 -76.5t-35 -115.5q0 -44 17 -82.5t45.5 -67t67 -45.5t82.5 -17t82.5 17t67 45.5t45 67t16.5 82.5t-16.5 82.5t-45 67
t-67 45t-82.5 16.5v0z" />
    <glyph glyph-name="uniE62C" unicode="&#xe62c;" 
d="M108 819l156 -619l303 96l-271 330l349 -306l283 88l-820 411v0zM576 77v171l-100 -30l100 -141v0z" />
    <glyph glyph-name="uniE62D" unicode="&#xe62d;" 
d="M865 32h-706l1 61l82 71l25 -8t64 -17t87 -16.5t94 -7.5q45 0 93 7.5t88 16.5t65.5 17l25.5 8l81 -70v-62v0zM262 188l51 163h397l51 -163l-25.5 -7t-63 -16t-81 -16t-78.5 -7t-78.5 7t-81.5 16t-64.5 16l-26.5 7v0zM343 447l52 162h234l51 -162h-337v0zM475 864h74
l49 -159h-173l50 159v0z" />
    <glyph glyph-name="uniE62E" unicode="&#xe62e;" 
d="M790 447q55 -60 77 -115t1 -92q-22 -37 -80 -45.5t-136 9.5q-23 -78 -59.5 -125t-79.5 -47t-79 47t-60 126q-79 -19 -137.5 -11t-80.5 46q-21 37 1 92.5t77 114.5q-56 60 -78.5 115.5t-1.5 93.5q22 38 81 46t139 -11q23 78 59.5 125.5t79.5 47.5t79.5 -47t59.5 -126
q79 19 137.5 11t80.5 -46q21 -38 -1.5 -93.5t-78.5 -115.5v0zM184 639q-16 -29 4 -74t69 -95q19 19 41.5 38t48.5 38q3 30 7.5 58.5t11.5 54.5q-68 18 -116.5 13.5t-65.5 -33.5v0zM343 500q-17 -13 -33 -26t-30 -27q14 -13 30 -26.5t33 -26.5q-1 13 -1 26.5v27.5v26.5
t1 25.5v0zM347 349q-26 18 -48.5 37t-41.5 38q-48 -50 -67.5 -94t-3.5 -73q17 -29 65 -33.5t115 12.5q-7 26 -11.5 54.5t-7.5 58.5v0zM643 325l-22 -14t-22 -13q-12 -7 -23.5 -13t-22.5 -12q19 -9 38.5 -16t37.5 -13q4 19 7.5 39.5t6.5 41.5v0zM513 67q33 0 61 39.5
t47 105.5q-26 8 -53.5 18t-55.5 23q-27 -12 -54 -22t-53 -18q19 -67 47 -106.5t61 -39.5v0zM398 245q17 6 35.5 12.5t38.5 15.5q-12 5 -23.5 11.5t-23.5 13.5q-11 6 -21 12.5t-21 13.5q3 -21 6.5 -40.5t8.5 -38.5v0zM384 571q10 7 21 14t22 13q11 7 22 13t23 11
q-20 9 -38.5 16t-36.5 12q-4 -18 -7.5 -38t-5.5 -41v0zM513 829q-33 0 -61 -40t-47 -107q26 -7 52.5 -17.5t54.5 -22.5q28 13 55.5 23t53.5 18q-19 67 -47 106.5t-61 39.5v0zM629 651q-19 -6 -38 -13t-39 -15q11 -6 22.5 -12t22.5 -13q12 -7 23.5 -14.5t22.5 -14.5
q-2 22 -6 42.5t-8 39.5v0zM648 525q-16 11 -33 22t-35 21t-35 19t-33 17q-17 -8 -34 -17t-34 -19t-33 -20.5t-32 -20.5q-1 -19 -2 -39t-1 -40q0 -21 0.5 -41t2.5 -39q15 -10 31 -20l32 -20q18 -10 35.5 -19.5t34.5 -17.5q17 8 34.5 17.5t35.5 19.5q17 10 33.5 20.5
t31.5 20.5q2 20 2.5 39.5t0.5 39.5t-0.5 39t-1.5 38v0zM838 257q16 29 -4 73t-67 94q-19 -19 -41 -37.5t-46 -35.5q-3 -31 -8 -60t-11 -56q65 -16 113 -11t64 33v0zM683 396q17 12 32 25t29 26q-14 13 -29 26t-32 26q1 -13 1.5 -25.5t0.5 -25.5t-0.5 -26t-1.5 -26v0z
M840 639q-17 28 -65 33t-114 -12q6 -27 11 -56t8 -61q25 -17 46.5 -35.5t40.5 -37.5q49 50 69 95t4 74v0zM518 382q-28 0 -48 20t-20 49q0 28 20 48.5t48 20.5q29 0 49 -20.5t20 -48.5q0 -29 -20 -49t-49 -20v0z" />
    <glyph glyph-name="uniE62F" unicode="&#xe62f;" 
d="M768 -65h-576q-27 0 -45.5 18.5t-18.5 45.5v771q0 26 18.5 45t45.5 19h160v-67h-128q-13 0 -22.5 -9.5t-9.5 -22.5v-705q0 -13 9.5 -22t22.5 -9h512q13 0 22.5 9t9.5 22v705q0 13 -9.5 22.5t-22.5 9.5h-128v67h160q26 0 45 -19t19 -45v-771q0 -27 -19 -45.5t-45 -18.5v0z
M352 575h352v-32h-352v32v0zM352 480h352v-32h-352v32v0zM352 384h352v-32h-352v32v0zM352 288h352v-32h-352v32v0zM704 64h-352v32h352v-32v0zM352 192h352v-32h-352v32v0zM256 576h32v-32h-32v32v0zM256 480h32v-32h-32v32v0zM256 384h32v-31h-32v31v0zM256 289h32v-32
h-32v32v0zM288 65h-32v32h32v-32v0zM256 193h32v-32h-32v32v0zM672 733q13 0 22.5 -9.5t9.5 -22.5v-37.5v-24.5h-448v24.5v37.5t9.5 22.5t22.5 9.5h96v29v68q0 41 27.5 70t68.5 29t69 -30t28 -69q0 -42 -0.5 -69.5l-0.5 -27.5h96v0zM480 834q-13 0 -22.5 -9.5t-9.5 -22.5
q0 -14 9.5 -23t22.5 -9t22.5 9t9.5 23q0 13 -9.5 22.5t-22.5 9.5v0z" />
    <glyph glyph-name="uniE630" unicode="&#xe630;" 
d="M253 735v-38.5v-25.5h448v25.5v38.5t-9 22.5t-23 9.5h-95l0.5 25.5t0.5 66.5q0 39 -29.5 69.5t-69.5 30.5t-67.5 -29.5t-27.5 -69.5q0 -39 -0.5 -66l-0.5 -27h-95q-13 0 -22.5 -9.5t-9.5 -22.5v0zM476 863q13 0 22.5 -9.5t9.5 -22.5t-9.5 -22.5t-22.5 -9.5t-22.5 9.5
t-9.5 22.5t9.5 22.5t22.5 9.5v0zM765 767v-317l18.5 17t45.5 28v304q0 26 -19.5 45t-46.5 19h-157v-64h127q13 0 22.5 -9.5t9.5 -22.5v0zM410 0h-189q-13 0 -22.5 9t-9.5 23v735q0 13 9.5 22.5t22.5 9.5h130v64h-162q-26 0 -45 -19t-19 -45v-799q0 -27 19 -45.5t45 -18.5
h291q-10 16 -27 33t-43 31v0zM765 32q0 -14 -9.5 -23t-22.5 -9h-87q-12 -16 -23.5 -32t-21.5 -32h162q27 0 46.5 18.5t19.5 45.5v196q-16 -13 -32 -27.5t-32 -31.5v-105v0zM899 290q-27 60 -20.5 112t9.5 108q-79 -39 -142.5 -109.5t-108 -139.5t-69 -119.5l-24.5 -50.5
l-82 154l-169 -99q27 -10 59 -29t66 -46t69 -61.5t68 -73.5q23 41 66.5 99t93.5 112t99.5 95t84.5 48v0z" />
    <glyph glyph-name="uniE631" unicode="&#xe631;" 
d="M934 792q-43 43 -97.5 65t-111.5 23t-112.5 -19t-100.5 -60q-45 40 -100.5 60t-112.5 19t-111.5 -23t-97.5 -65q-45 -45 -67.5 -101t-22.5 -114t22.5 -114t67.5 -101q13 -12 69.5 -68.5t120 -119t114 -112.5l50.5 -50q28 -28 68 -28t69 28l54.5 54t120.5 119.5
t121.5 120.5t56.5 56q45 45 67.5 101t22.5 114t-22.5 114t-67.5 101v0zM889 407l-354 -350q-10 -9 -23 -9t-23 9l-353 350q-36 35 -53.5 79.5t-17.5 90.5t17.5 90t53.5 79q34 34 76.5 51.5t87.5 18.5t89 -14.5t80 -48.5l43 -39l43 39q36 33 80 48.5t89 14.5t87.5 -18.5
t77.5 -51.5q35 -35 52.5 -79t17.5 -90t-17.5 -90.5t-52.5 -79.5v0zM296 720q7 0 11.5 -4.5t4.5 -11.5t-4.5 -11.5t-11.5 -4.5v0q-43 0 -73.5 -30.5t-30.5 -73.5v0q0 -7 -4.5 -11.5t-11.5 -4.5t-11.5 4.5t-4.5 11.5v0q0 56 40 96t96 40v0v0v0z" />
    <glyph glyph-name="uniE632" unicode="&#xe632;" 
d="M829 539q-5 55 -29 102.5t-62.5 83t-88 55.5t-105.5 20q-43 0 -83 -12.5t-73.5 -34.5t-60.5 -52.5t-44 -67.5q-10 3 -21 5t-22 2q-60 0 -102 -42t-42 -102q0 -12 2 -23t6 -22q-46 -27 -75 -74t-29 -105q0 -43 16.5 -81t44.5 -66t66 -44.5t81 -16.5v0h576q50 0 93.5 19
t76 51.5t51.5 76t19 93.5q0 44 -15 83t-41 70.5t-61.5 52.5t-77.5 29v0zM784 128v0h-576q-60 0 -102 42t-42 102q0 38 19 71t53 53q33 19 37.5 30t-8.5 45q-3 7 -4 13t-1 12q0 33 23.5 56.5t56.5 23.5l13.5 -0.5t29.5 -6.5q28 -11 36.5 -1.5t21.5 38.5q28 59 83 94.5
t120 35.5q43 0 81.5 -15.5t68.5 -42.5t48.5 -64t23.5 -81q3 -34 9 -41t42 -15q62 -12 102.5 -61t40.5 -112q0 -73 -51.5 -124.5t-124.5 -51.5v0z" />
    <glyph glyph-name="uniE633" unicode="&#xe633;" 
d="M1020 558q-6 19 -22 32t-37 17l-266 39l-116 241q-9 19 -27 30t-40 11t-40 -11t-27 -30l-116 -241l-266 -39q-21 -4 -37 -17t-22 -32q-7 -19 -2 -38.5t19 -34.5l195 -195l-45 -270q-3 -21 5 -40t25 -31q10 -6 21 -9.5t22 -3.5q9 0 18 2.5t18 6.5l232 125l232 -125
q9 -4 18 -6.5t18 -2.5q11 0 22 3.5t21 9.5q17 12 25 31t5 40l-45 270l195 195q14 15 19 34.5t-2 38.5v0zM755 340q-12 -12 -17.5 -28.5t-2.5 -33.5l45 -270l-232 125q-9 5 -18 7t-18 2t-18 -2t-18 -7l-232 -125l45 270q3 17 -2.5 33.5t-17.5 28.5l-195 195l266 40
q19 3 33.5 13.5t22.5 27.5l116 240l116 -240q8 -17 22.5 -27.5t33.5 -13.5l266 -40l-195 -195v0z" />
    <glyph glyph-name="uniE634" unicode="&#xe634;" 
d="M996 53q-3 2 -25 15.5t-61 31.5t-92.5 38t-118.5 34q48 60 78.5 133.5t43.5 127.5q9 38 11 90.5t-6.5 110t-29.5 114.5t-57 103q-42 54 -100 81.5t-127 27.5t-127 -28t-100 -81q-36 -46 -57 -103t-29.5 -114.5t-6.5 -110t11 -90.5q13 -54 43.5 -127.5t78.5 -133.5
q-65 -14 -118.5 -34t-92.5 -38t-61 -31.5t-24 -15.5q-18 -11 -25 -31t-1 -40q6 -21 23 -33.5t38 -12.5h896q21 0 38 12.5t23 33.5q6 20 -1 40t-24 31v0zM649 211l-11 -13q-57 -66 -126 -66t-126 66l-10 13q-34 43 -58.5 91.5t-39.5 100.5t-19.5 106t2.5 107q7 51 25 101.5
t49 90t75 64t102 24.5t102 -24.5t75 -64t49 -90t25 -101.5q7 -53 2.5 -107.5t-19.5 -106t-39.5 -100t-57.5 -91.5v0zM64 0q2 1 22 13.5t56 29t86 35t111 31.5l79 17q22 -14 45 -22t49 -8t49 8t45 22l79 -17q60 -13 110 -31t85.5 -35t56.5 -29t23 -14h-896v0z" />
    <glyph glyph-name="uniE635" unicode="&#xe635;" 
d="M704 960q-66 0 -124.5 -25t-102 -68.5t-68.5 -102t-25 -124.5q0 -31 6 -60t17 -56l-389 -389q-8 -8 -13 -17t-5 -22v-96q0 -26 19 -45t45 -19h96q13 0 22 5t17 13l46 46h75q27 0 45.5 19t18.5 45v64h64q27 0 45.5 19t18.5 45v75l76 76q27 -11 56 -17t60 -6q66 0 124.5 25
t102 68.5t68.5 102t25 124.5t-25 124.5t-68.5 102t-102 68.5t-124.5 25v0zM704 384q-35 0 -68 9.5t-61 26.5l-11 -11l-97 -97q-9 -9 -14 -20.5t-5 -24.5v-75h-64q-26 0 -45 -18.5t-19 -45.5v-64h-75q-13 0 -24.5 -5t-20.5 -14l-45 -45h-91v91l373 373v0v0l47 47
q-17 28 -26.5 61t-9.5 68q0 53 20 99.5t55 81.5t81.5 55t99.5 20t99.5 -20t81.5 -55t55 -81.5t20 -99.5t-20 -99.5t-55 -81.5t-81.5 -55t-99.5 -20v0zM890 696q-27 38 -59.5 70.5t-70.5 59.5q-6 5 -13.5 6t-14.5 -2q-33 -12 -56 -34.5t-34 -55.5q-1 -3 -1.5 -5.5t-0.5 -5.5
q0 -4 1.5 -9t4.5 -9q27 -37 59.5 -69.5t70.5 -59.5q6 -5 13.5 -6t14.5 2q33 11 56 34t34 56q1 3 1.5 5.5t0.5 4.5q0 5 -1.5 9.5t-4.5 8.5v0zM794 608q-35 25 -66 55.5t-56 65.5q9 27 26.5 44.5t43.5 26.5q35 -25 66 -56t56 -66q-9 -26 -26.5 -43.5t-43.5 -26.5v0z" />
    <glyph glyph-name="uniE636" unicode="&#xe636;" 
d="M640 960q-80 0 -149.5 -30.5t-122 -82.5t-82.5 -122t-30 -149q0 -49 11.5 -94t33.5 -86l-267 -267v0q-16 -15 -25 -36t-9 -44q0 -47 33 -80t80 -33q24 0 44.5 9t35.5 25v0l267 267q40 -22 85.5 -33.5t94.5 -11.5q80 0 149.5 30t122 82t82.5 122t30 150q0 79 -30 149
t-82.5 122t-122 82.5t-149.5 30.5v0zM153 10q-7 -8 -17.5 -13t-22.5 -5q-23 0 -40 16.5t-17 40.5q0 12 5 22.5t13 17.5v1l258 258q17 -23 37 -43t42 -37l-258 -258v0zM640 256q-66 0 -124.5 25t-102 68.5t-68.5 102t-25 124.5t25 124.5t68.5 102t102 68.5t124.5 25
t124.5 -25t102 -68.5t68.5 -102t25 -124.5t-25 -124.5t-68.5 -102t-102 -68.5t-124.5 -25v0zM640 800q7 0 11.5 -5t4.5 -11q0 -7 -4.5 -11.5t-11.5 -4.5q-80 0 -136 -56.5t-56 -135.5q0 -7 -4.5 -11.5t-11.5 -4.5t-11.5 4.5t-4.5 11.5q0 46 17.5 87t48 71.5t71.5 48t87 17.5
v0z" />
    <glyph glyph-name="uniE637" unicode="&#xe637;" 
d="M973 554l-99 20q-3 11 -7.5 21t-9.5 20l56 83q13 19 10.5 42t-18.5 39l-62 62q-9 9 -21 14t-24 5q-9 0 -18 -3t-17 -8l-84 -56q-10 5 -20 9.5t-21 7.5l-20 98q-4 23 -22 37.5t-41 14.5h-87q-22 0 -40 -14.5t-22 -37.5l-20 -98q-11 -3 -21 -7.5t-20 -9.5l-83 56
q-9 5 -18 8t-18 3q-12 0 -24 -5t-21 -14l-62 -62q-16 -16 -18 -39t10 -42l56 -83q-5 -10 -9.5 -20.5t-7.5 -20.5l-99 -20q-22 -4 -36.5 -22t-14.5 -41v-87q0 -22 14.5 -40t36.5 -22l99 -20q3 -11 7.5 -21t9.5 -20l-56 -84q-12 -19 -10 -41.5t18 -38.5l62 -62q9 -9 21 -14
t24 -5q9 0 18 3t18 8l83 56q10 -5 20 -9.5t21 -7.5l20 -99q4 -22 22 -36.5t40 -14.5h88q22 0 40 14.5t22 36.5l20 99q11 3 21 7.5t20 9.5l84 -56q8 -5 17 -8t18 -3q12 0 24 5t21 14l62 62q16 16 18.5 38.5t-10.5 41.5l-56 84q5 10 9.5 20t7.5 21l99 20q22 4 36.5 22t14.5 40
v87q0 23 -14.5 41t-36.5 22v0zM862 385q-17 -4 -29.5 -15t-18.5 -27q-3 -9 -6.5 -17.5t-7.5 -16.5q-8 -16 -6.5 -33t10.5 -31l56 -83l-62 -62l-83 56q-8 5 -17 8t-19 3q-7 0 -14 -2t-14 -5q-8 -4 -16.5 -7.5t-17.5 -6.5q-16 -6 -27 -18.5t-15 -29.5l-19 -98h-88l-19 98
q-3 17 -14.5 29.5t-27.5 18.5q-9 3 -17.5 6.5t-16.5 7.5q-7 3 -14 5t-14 2q-10 0 -19 -3t-17 -8l-83 -56l-62 62l56 83q9 14 10.5 31t-6.5 33q-4 8 -7.5 16.5t-6.5 17.5q-6 16 -18.5 27t-29.5 15l-98 19v87l98 20q17 3 29.5 14.5t18.5 27.5q3 9 6.5 17.5t7.5 16.5
q8 16 6.5 32.5t-10.5 31.5l-56 83l62 62l83 -56q8 -5 17 -8t19 -3q7 0 14 1.5t14 5.5q8 4 16.5 7.5t17.5 6.5q16 6 27 18.5t15 29.5l19 98h87l20 -98q3 -17 14.5 -29.5t27.5 -18.5q9 -3 17.5 -6.5t16.5 -7.5q7 -4 14 -5.5t14 -1.5q10 0 19 3t17 8l83 56l62 -62l-56 -83
q-9 -15 -10.5 -31.5t6.5 -32.5q4 -8 7.5 -16.5t6.5 -17.5q6 -16 18.5 -27.5t29.5 -14.5l98 -20v-87l-98 -19v0zM512 672q-46 0 -87 -17.5t-71.5 -48t-48 -71.5t-17.5 -87t17.5 -87t48 -71.5t71.5 -48t87 -17.5t87 17.5t71.5 48t48 71.5t17.5 87t-17.5 87t-48 71.5t-71.5 48
t-87 17.5v0zM512 252q-41 0 -76.5 15.5t-62 42t-42 62t-15.5 76.5t15.5 76.5t42 62t62 42t76.5 15.5t76.5 -15.5t62 -42t42 -62t15.5 -76.5t-15.5 -76.5t-42 -62t-62 -42t-76.5 -15.5v0zM512 576q-53 0 -90.5 -37.5t-37.5 -90.5t37.5 -90.5t90.5 -37.5t90.5 37.5t37.5 90.5
t-37.5 90.5t-90.5 37.5v0zM512 352q-40 0 -68 28t-28 68t28 68t68 28t68 -28t28 -68t-28 -68t-68 -28v0z" />
    <glyph glyph-name="uniE638" unicode="&#xe638;" 
d="M512 640q-53 0 -99.5 -20t-81.5 -55t-55 -81.5t-20 -99.5t20 -99.5t55 -81.5t81.5 -55t99.5 -20t99.5 20t81.5 55t55 81.5t20 99.5t-20 99.5t-55 81.5t-81.5 55t-99.5 20v0zM658 259q-52 -60 -131.5 -66.5t-139.5 45.5t-66 131.5t45 139.5q52 60 131.5 66t139.5 -45
q60 -52 66.5 -131.5t-45.5 -139.5v0zM512 512q7 0 11.5 -4.5t4.5 -11.5t-4.5 -11.5t-11.5 -4.5q-40 0 -68 -28t-28 -68v0q0 -7 -4.5 -11.5t-11.5 -4.5t-11.5 4.5t-4.5 11.5v0q0 53 37.5 90.5t90.5 37.5v0zM944 671l-139 23l-44 110q-11 27 -35 43.5t-54 16.5h-320
q-30 0 -54 -16.5t-35 -43.5l-44 -110l-139 -23q-35 -6 -57.5 -33t-22.5 -62v-480q0 -40 28 -68t68 -28h832q40 0 68 28t28 68v480q0 35 -22.5 62t-57.5 33v0zM960 96q0 -13 -9.5 -22.5t-22.5 -9.5h-832q-13 0 -22.5 9.5t-9.5 22.5v480q0 12 7.5 21t19.5 11l174 29l57 143
q4 9 12 14.5t18 5.5h320q10 0 18 -5.5t12 -14.5l57 -143l174 -29q12 -2 19.5 -11t7.5 -21v-480v0z" />
    <glyph glyph-name="uniE639" unicode="&#xe639;" 
d="M512 960q-73 0 -137 -27.5t-112 -75.5t-75.5 -112t-27.5 -137q0 -48 19 -97.5t45.5 -98.5t53.5 -97t43 -93q48 -134 69 -210t122 -76q102 0 122.5 75.5t68.5 210.5q16 45 43.5 93t53.5 97t45 98.5t19 97.5q0 73 -27.5 137t-75.5 112t-112 75.5t-137 27.5v0zM595 90
l-159 -19q-4 12 -8.5 26.5t-10.5 33.5v0.5v0.5l198 25q-2 -7 -4.5 -14.5l-4.5 -13.5q-3 -11 -5.5 -20.5t-5.5 -18.5v0zM408 163q-5 14 -10 29.5t-10 31.5h248q-3 -9 -5.5 -17.5t-5.5 -16.5l-217 -27v0zM512 0q-24 0 -37.5 6.5t-26.5 33.5l136 17q-15 -40 -29.5 -48.5
t-42.5 -8.5v0zM662 288h-299q-12 26 -26 52t-28 51q-31 56 -58 112t-27 105q0 60 22.5 112t62 91.5t91.5 62t112 22.5t112 -22.5t91.5 -62t62 -91.5t22.5 -112q0 -48 -27 -104.5t-58 -112.5q-14 -26 -28 -51.5t-25 -51.5v0zM512 800q7 0 11.5 -4.5t4.5 -11.5t-4.5 -11.5
t-11.5 -4.5q-66 0 -113 -47t-47 -113q0 -7 -4.5 -11.5t-11.5 -4.5t-11.5 4.5t-4.5 11.5q0 79 56.5 135.5t135.5 56.5v0z" />
    <glyph glyph-name="uniE63A" unicode="&#xe63a;" 
d="M1005 650l-162 163q-9 9 -21 14t-25 5h-570q-13 0 -25 -5t-21 -14l-162 -163q-10 -9 -14.5 -21t-4.5 -24t4 -22.5t12 -19.5l448 -477q9 -11 21.5 -16.5t26.5 -5.5t26.5 5.5t21.5 16.5l448 477q8 9 12 20t4 23t-5 23.5t-14 20.5v0zM583 608h-142l71 59l71 -59v0zM537 688
l87 73l65 -65l-81 -67l-71 59v0zM416 629l-81 67l65 65l87 -73l-71 -59v0zM592 576l-80 -399l-80 399h160v0zM624 576h157l-235 -393l78 393v0zM633 608l79 65l65 -65h-144v0zM663 768h112l-61 -51l-51 51v0zM512 708l-71 60h142l-71 -60v0zM310 717l-61 51h112l-51 -51v0z
M312 673l79 -65h-144l65 65v0zM400 576l78 -393l-235 393h157v0zM407 240l-315 336h113l202 -336v0zM819 576h113l-315 -336l202 336v0zM823 608l-87 86l74 61l147 -147h-134v0zM214 755l74 -61l-87 -86h-137l150 147v0z" />
    <glyph glyph-name="uniE63B" unicode="&#xe63b;" 
d="M512 392q79 0 135.5 56.5t56.5 135.5q0 80 -56.5 136t-135.5 56t-135.5 -56t-56.5 -136q0 -79 56.5 -135.5t135.5 -56.5v0zM512 744q66 0 113 -47t47 -113t-47 -113t-113 -47t-113 47t-47 113t47 113t113 47v0zM512 960q-79 0 -149 -30t-122.5 -82t-82.5 -122t-30 -150
q0 -84 32 -168t81.5 -163t108 -151t110.5 -132q0 -1 15 -13.5t36 -12.5h1h1q21 0 36 12.5t15 13.5q53 60 111 132t107.5 151t81.5 163t32 168q0 80 -30 150t-82.5 122t-122.5 82t-149 30v0zM516 4l-2 -2t-3 -1l-1.5 1.5l-2.5 2.5q-44 50 -98.5 116.5t-102.5 141.5t-81 155
t-33 158q0 66 25 124.5t68.5 102t102 68.5t124.5 25t124.5 -25t102 -68.5t68.5 -102t25 -124.5q0 -78 -33 -158t-81 -155t-103 -141.5t-99 -117.5v0z" />
    <glyph glyph-name="uniE63C" unicode="&#xe63c;" 
d="M1023 455v2t-1 2v1l-1 1v0.5v1.5q-35 67 -89 123t-120.5 96.5t-142.5 63t-156 22.5t-156.5 -22.5t-143 -63t-120 -96.5t-88.5 -123q-1 0 -1 -1v-1q0 -1 -0.5 -1t-0.5 -1v-1.5v-2.5q-1 -1 -1.5 -3t-0.5 -4t0.5 -3.5t1.5 -3.5v-2v-2l0.5 -0.5l0.5 -0.5v-1.5t1 -1.5
q35 -66 88.5 -122t120 -96.5t143 -63.5t156.5 -23t156 23t142.5 63.5t120.5 96t89 122.5v1.5v0.5l1 1v1q1 1 1 2v2q0 2 0.5 3.5t0.5 3.5t-0.5 3.5t-0.5 3.5v0zM513 192q-68 0 -133 18.5t-123 52t-106.5 81t-80.5 104.5q33 58 81 105t106 80.5t123 52t133 18.5
q67 0 132.5 -18.5t123.5 -52t106 -80.5t81 -105q-33 -58 -81 -105t-106 -80.5t-123.5 -52t-132.5 -18.5v0zM513 576q6 0 11 -4.5t5 -11.5t-5 -11.5t-11 -4.5v0q-40 0 -68 -28t-28 -68q0 -6 -5 -11t-11 -5q-7 0 -11.5 5t-4.5 11q0 53 37.5 90.5t90.5 37.5v0v0v0zM512 672
q-46 0 -87 -17.5t-71.5 -48t-48 -71.5t-17.5 -87t17.5 -87t48 -71.5t71.5 -48t87 -17.5t87 17.5t71.5 48t48 71.5t17.5 87t-17.5 87t-48 71.5t-71.5 48t-87 17.5v0zM512 256q-79 0 -135.5 56.5t-56.5 135.5t56.5 135.5t135.5 56.5t135.5 -56.5t56.5 -135.5t-56.5 -135.5
t-135.5 -56.5v0z" />
    <glyph glyph-name="uniE63D" unicode="&#xe63d;" 
d="M512 736q7 0 11.5 -4.5t4.5 -11.5t-4.5 -11.5t-11.5 -4.5q-64 0 -122 -15.5t-102 -42t-70 -61.5t-26 -73q0 -7 -4.5 -11.5t-11.5 -4.5t-11.5 4.5t-4.5 11.5q0 46 28 86.5t76.5 71t112 48.5t135.5 18v0zM512 896q-106 0 -199.5 -30t-163 -82.5t-109.5 -122t-40 -149.5
q0 -50 16 -96t45.5 -86.5t71 -75t91.5 -60.5v-0.5v-1.5q0 -43 -24 -85t-38 -67v0v0q-1 -2 -1.5 -5t-0.5 -6q0 -12 8.5 -20.5t20.5 -8.5q2 0 5 0.5t3 -0.5q38 7 73 25t64.5 39t50 41t28.5 30q24 -3 49 -5t50 -2q106 0 199.5 30t163 82.5t109.5 122t40 149.5t-40 149.5
t-109.5 122t-163 82.5t-199.5 30v0zM512 192q-22 0 -44.5 1.5t-44.5 5.5h-5h-5q-14 0 -27 -6t-22 -17q-10 -13 -37 -37t-62 -44q9 21 15.5 45t7.5 49v2.5v2.5q0 18 -9.5 33.5t-25.5 23.5q-44 23 -79 52t-59.5 62.5t-37.5 71t-13 75.5q0 66 35.5 124.5t96 102t142 68.5
t174.5 25t174.5 -25t142 -68.5t96 -102t35.5 -124.5t-35.5 -124.5t-96 -102t-142 -68.5t-174.5 -25v0z" />
    <glyph glyph-name="uniE63E" unicode="&#xe63e;" 
d="M896 800h-768q-53 0 -90.5 -37.5t-37.5 -90.5v-416q0 -53 37.5 -90.5t90.5 -37.5h768q53 0 90.5 37.5t37.5 90.5v416q0 53 -37.5 90.5t-90.5 37.5v0zM64 632l224 -168l-224 -168v336v0zM960 256q0 -26 -19 -45t-45 -19h-768q-26 0 -45 19t-19 45l251 188l139 -105
q13 -9 28 -14t30 -5t30 5t28 14l139 105l251 -188v0zM960 296l-224 168l224 168v-336v0zM550 365q-8 -7 -18 -10t-20 -3t-20 3t-18 10l-410 307q0 26 19 45t45 19h768q26 0 45 -19t19 -45l-410 -307v0z" />
    <glyph glyph-name="uniE63F" unicode="&#xe63f;" 
d="M1009 955q-4 2 -8 3.5t-9 1.5t-9.5 -1.5t-8.5 -3.5l-960 -640q-7 -5 -11 -13t-3 -17t6.5 -16t13.5 -11l250 -100l118 -206q4 -7 11.5 -11.5t16.5 -4.5v0v0q8 0 15.5 4t11.5 12l67 110l310 -124q3 -1 6 -1.5t6 -0.5q4 0 8 1t8 3q6 4 10 10t6 13l160 960q1 9 -3 18t-12 14
v0zM100 295l742 495l-539 -578q-2 2 -4 3.5t-5 2.5l-194 77v0zM326 190v0v0l606 649l-517 -805l-89 156v0zM807 13l-273 109q-5 2 -10 2.5t-10 1.5l421 652l-128 -765v0z" />
    <glyph glyph-name="uniE640" unicode="&#xe640;" 
d="M256 767v97q0 40 -28 68t-68 28t-68 -28t-28 -68v-97q-29 -22 -46.5 -55t-17.5 -72t17.5 -72t46.5 -55v-481q0 -40 28 -68t68 -28t68 28t28 68v481q29 22 46.5 55t17.5 72t-17.5 72t-46.5 55v0zM128 864q0 13 9.5 22.5t22.5 9.5t22.5 -9.5t9.5 -22.5v-67l-16 2t-16 1
t-16 -1l-16 -2v67v0zM192 32q0 -13 -9.5 -22.5t-22.5 -9.5t-22.5 9.5t-9.5 22.5v451l16 -2t16 -1t16 1l16 2v-451v0zM252 613q-1 -1 -1 -2.5t-1 -2.5q-2 -6 -5 -12t-7 -11v-1v0q-5 -6 -10 -11t-10 -9v0v0q-6 -5 -12.5 -8.5t-13.5 -5.5q-8 -3 -16 -4.5t-16 -1.5t-16 1.5
t-16 4.5q-7 2 -13.5 5.5t-12.5 8.5v0v0q-6 4 -10.5 9t-9.5 11v0v1q-4 5 -7 11t-5 12q-1 1 -1 2.5t-1 2.5q-2 7 -3 13.5t-1 13.5t1 14t3 13q1 1 1 2.5t1 2.5q2 6 5 12t7 12v0v0q5 6 10 11t10 9v0v0q6 5 12.5 8.5t13.5 5.5q8 3 16 4.5t16 1.5t16 -1.5t16 -4.5q7 -2 13.5 -5.5
t12.5 -8.5v0v0q6 -4 10.5 -9t9.5 -11v0v0q4 -6 7 -12t5 -12q1 -1 1 -2.5t1 -2.5q2 -6 3 -13t1 -14t-1 -13.5t-3 -13.5v0zM960 767v97q0 40 -28 68t-68 28t-68 -28t-28 -68v-97q-29 -22 -46.5 -55t-17.5 -72t17.5 -72t46.5 -55v-481q0 -40 28 -68t68 -28t68 28t28 68v481
q29 22 46.5 55t17.5 72t-17.5 72t-46.5 55v0zM832 864q0 13 9.5 22.5t22.5 9.5t22.5 -9.5t9.5 -22.5v-67l-16 2t-16 1t-16 -1l-16 -2v67v0zM896 32q0 -13 -9.5 -22.5t-22.5 -9.5t-22.5 9.5t-9.5 22.5v451l16 -2t16 -1t16 1l16 2v-451v0zM956 613q-1 -1 -1 -2.5t-1 -2.5
q-2 -6 -5 -12t-7 -11v-1v0q-5 -6 -10 -11t-10 -9v0v0q-6 -5 -12.5 -8.5t-13.5 -5.5q-8 -3 -16 -4.5t-16 -1.5t-16 1.5t-16 4.5q-7 2 -13.5 5.5t-12.5 8.5v0v0q-6 4 -10.5 9t-9.5 11v0v1q-4 5 -7 11t-5 12q-1 1 -1 2.5t-1 2.5q-2 7 -3 13.5t-1 13.5t1 14t3 13q1 1 1 2.5
t1 2.5q2 6 5 12t7 12v0v0q5 6 9.5 11t10.5 9v0v0q6 5 12.5 8.5t13.5 5.5q8 3 16 4.5t16 1.5t16 -1.5t16 -4.5q7 -2 13.5 -5.5t12.5 -8.5v0v0q6 -4 10.5 -9t9.5 -11v0v0q4 -6 7 -12t5 -12q1 -1 1 -2.5t1 -2.5q2 -6 3 -13t1 -14t-1 -13.5t-3 -13.5v0zM608 383v481q0 40 -28 68
t-68 28t-68 -28t-28 -68v-481q-29 -22 -46.5 -55t-17.5 -72t17.5 -72t46.5 -55v-97q0 -40 28 -68t68 -28t68 28t28 68v97q29 22 46.5 55t17.5 72t-17.5 72t-46.5 55v0zM480 864q0 13 9.5 22.5t22.5 9.5t22.5 -9.5t9.5 -22.5v-451l-16 2t-16 1t-16 -1l-16 -2v451v0zM544 32
q0 -13 -9.5 -22.5t-22.5 -9.5t-22.5 9.5t-9.5 22.5v67l16 -2t16 -1t16 1l16 2v-67v0zM604 229q-1 -1 -1 -2.5t-1 -2.5q-2 -6 -5 -12t-7 -11v-1v0q-5 -6 -10 -11t-10 -9v0v0q-6 -5 -12.5 -8.5t-13.5 -5.5q-8 -3 -16 -4.5t-16 -1.5t-16 1.5t-16 4.5q-7 2 -13.5 5.5t-12.5 8.5
v0v0q-6 4 -10.5 9t-9.5 11v0v1q-4 5 -7 11t-5 12q-1 1 -1 2.5t-1 2.5q-2 7 -3 13.5t-1 13.5t1 14t3 13q1 1 1 2.5t1 2.5q2 6 5 12t7 12v0v0q5 6 10 11t10 9v0v0q6 5 12.5 8.5t13.5 5.5q8 3 16 4.5t16 1.5t16 -1.5t16 -4.5q7 -2 13.5 -5.5t12.5 -8.5v0v0q6 -4 10.5 -9
t9.5 -11v0v0q4 -6 7 -12t5 -12q1 -1 1 -2.5t1 -2.5q2 -6 3 -13t1 -14t-1 -13.5t-3 -13.5v0z" />
    <glyph glyph-name="uniE641" unicode="&#xe641;" 
d="M1005 621l-320 320q-12 12 -28 16.5t-32 0.5q-9 -2 -16.5 -6.5t-13.5 -10.5q-6 -5 -10 -12t-6 -14q-11 -35 -30 -66t-47 -59q-37 -37 -84 -67t-98 -60q-54 -31 -108.5 -65.5t-100.5 -80.5q-39 -40 -66 -84t-42 -94q-5 -17 -1 -34.5t17 -29.5l320 -320q12 -12 28 -16.5
t32 -0.5q9 2 16.5 6.5t13.5 10.5q6 5 10 12t6 14q11 35 30 66t47 59q37 37 84 67t98 60q54 31 108.5 65.5t100.5 80.5q39 40 66 84t42 94q5 17 1 34.5t-17 29.5v0zM384 0l-80 80l-80 80l-80 80l-80 80q34 110 115.5 172.5t172.5 115.5t172.5 115.5t115.5 172.5l80 -80
l80 -80l80 -80l80 -80q-34 -110 -115.5 -172.5t-172.5 -115.5t-172.5 -115.5t-115.5 -172.5v0zM626 483q-8 7 -16 11.5t-16 6.5q-7 2 -15 3t-16 0q-8 0 -16 -2t-16 -5t-16 -6.5t-17 -7.5q-12 15 -25 29.5t-26 27.5q6 5 11.5 8t10.5 3q6 0 11 -0.5t10 -1.5l10 -2t9 -2t8 0
t7 3q3 3 5 7t3 9q0 5 -2 9.5t-6 8.5q-5 6 -11 9.5t-13 5.5q-8 1 -15 1t-15 -2t-15 -5t-14 -7t-12.5 -8t-9.5 -8q-1 2 -3 3.5t-3 2.5q-2 2 -4 2.5t-5 0.5q-2 0 -4.5 -1t-4.5 -3q-1 -2 -2 -4.5t0 -4.5q0 -3 1 -5t3 -3q1 -2 2.5 -3t3.5 -3q-6 -7 -11 -15t-9 -17t-6.5 -17.5
t-3.5 -16.5t0 -16t3 -15q3 -7 7.5 -13.5t11.5 -11.5q11 -10 24.5 -14t29.5 -3q15 1 31.5 6t34.5 14l28 -32t29 -31q-6 -6 -11.5 -8.5t-10.5 -3.5q-4 -1 -8 -1t-8 1t-7.5 3t-6.5 4t-6.5 4t-6.5 3q-3 2 -6 2.5t-6 0.5q-4 0 -7.5 -1.5t-7.5 -4.5q-3 -3 -5 -7t-2 -9q0 -4 2 -8.5
t6 -9.5t9 -8.5t12 -6.5q6 -3 13.5 -5t15.5 -3q8 0 16 1t17 5q9 3 18 9t17 14q5 -4 9 -8t8 -7q2 -2 4 -2.5t5 -0.5q2 0 4.5 1t4.5 3q1 3 2 5t1 5l-2 4l-2 4q-5 3 -9 6.5t-8 7.5q7 9 12.5 18t10.5 18q4 9 6.5 18t3.5 17q1 9 0 16.5t-4 14.5q-3 6 -7.5 12.5t-11.5 11.5v0z
M447 462q-7 -1 -13 1.5t-11 7.5q-2 2 -3.5 4.5t-2.5 5.5t-1.5 6.5t0.5 6.5q0 4 1 8t3 7q2 4 4.5 8t5.5 7q13 -12 25 -25t24 -27q-9 -5 -17 -7.5t-15 -2.5v0zM598 397q-2 -4 -4.5 -7.5t-5.5 -6.5q-13 14 -26.5 28.5t-27.5 30.5q4 1 7.5 2.5t7.5 3.5t7.5 3t7.5 2h8t8 -1
t7.5 -3t7.5 -6q3 -3 5 -6.5t3 -7.5t1 -8v-8q-1 -4 -2.5 -8t-3.5 -8v0zM471 250q5 4 11 4t10 -5q5 -4 5 -11t-5 -12h-0.5t-0.5 -1v0q-15 -11 -28.5 -22.5t-26.5 -24.5q-12 -12 -23 -25t-21 -26l-20 -28l-1.5 -1.5t-0.5 -1.5q-5 -5 -12 -5t-11 5q-4 4 -4.5 10t2.5 10v0l22 30
q10 14 21.5 28t24.5 27q14 13 28.5 25.5t29.5 23.5v0v0zM588 713q12 12 23 25t21 26l21 29q0 1 1 2l2 2q4 4 11 4t11 -4q5 -5 5 -11t-4 -11v0l-22 -30q-10 -14 -21.5 -27.5t-24.5 -27.5q-14 -13 -28.5 -25.5t-29.5 -23.5v0q-5 -5 -11.5 -4.5t-10.5 4.5q-5 5 -5 11.5t5 11.5
q0 1 1 1.5t2 1.5q15 11 28.5 22.5t25.5 23.5v0z" />
    <glyph glyph-name="uniE642" unicode="&#xe642;" 
d="M512 960q-81 0 -161 -12.5t-144 -38t-103.5 -64.5t-39.5 -93v-608q0 -54 39.5 -93t103.5 -64.5t144 -38t161 -12.5t161 12.5t144 38t103.5 64.5t39.5 93v608q0 54 -39.5 93t-103.5 64.5t-144 38t-161 12.5v0zM896 144q0 -30 -30 -56t-82.5 -45.5t-122 -31t-149.5 -11.5
t-149.5 11.5t-122 31t-82.5 45.5t-30 56v120q25 -26 65.5 -45.5t91.5 -32.5t109.5 -19.5t117.5 -6.5t117.5 6.5t109.5 19.5t91.5 32.5t65.5 45.5v-120v0zM896 336v0v-0.5v-0.5q0 -30 -30 -56t-82.5 -45.5t-122 -30.5t-149.5 -11t-149.5 11t-122 30.5t-82.5 45.5t-30 56v0.5
v0.5v0v120q25 -26 65.5 -45.5t91.5 -32.5t109.5 -19.5t117.5 -6.5t117.5 6.5t109.5 19.5t91.5 32.5t65.5 45.5v-120v0zM896 528v0v-0.5v-0.5q0 -30 -30 -56t-82.5 -45.5t-122 -30.5t-149.5 -11t-149.5 11t-122 30.5t-82.5 45.5t-30 56v0.5v0.5v0v110q31 -24 74.5 -41.5
t94 -29.5t105.5 -17.5t110 -5.5t110 5.5t105.5 17.5t94 29.5t74.5 41.5v-110v0zM512 608q-80 0 -149.5 11.5t-122 31t-82.5 45.5t-30 56t30 56t82.5 45.5t122 31t149.5 11.5t149.5 -11.5t122 -31t82.5 -45.5t30 -56t-30 -56t-82.5 -45.5t-122 -31t-149.5 -11.5v0zM768 128
q0 13 9.5 22.5t22.5 9.5t22.5 -9.5t9.5 -22.5t-9.5 -22.5t-22.5 -9.5t-22.5 9.5t-9.5 22.5v0zM768 320q0 13 9.5 22.5t22.5 9.5t22.5 -9.5t9.5 -22.5t-9.5 -22.5t-22.5 -9.5t-22.5 9.5t-9.5 22.5v0zM768 512q0 13 9.5 22.5t22.5 9.5t22.5 -9.5t9.5 -22.5t-9.5 -22.5
t-22.5 -9.5t-22.5 9.5t-9.5 22.5v0z" />
    <glyph glyph-name="uniE643" unicode="&#xe643;" 
d="M800 960q-49 0 -88 -31.5t-66 -83.5l-1 1q-40 -79 -98 -126.5t-124 -47.5h-295q-54 0 -91 -46.5t-37 -113.5t37 -113.5t91 -46.5q26 0 45 -19t19 -45v-288q0 -27 18.5 -45.5t45.5 -18.5h128q26 0 45 18.5t19 45.5v32q0 24 -16 37.5t-16 26.5v224v1v1q1 3 1.5 6.5t2.5 6.5
l0.5 1t1.5 1q2 3 4.5 5.5t5.5 4.5v0v0v0v0q2 1 4.5 1.5t4.5 1.5q61 -6 113.5 -52t90.5 -120h1q28 -52 66.5 -83t87.5 -31q55 0 97 38.5t70 102t42.5 144t14.5 163.5t-14.5 163.5t-42.5 144t-70 102t-97 38.5v0zM640 512q0 25 1.5 49t3.5 47h91q26 0 45 -28t19 -68t-19 -68
t-45 -28h-91q-2 23 -3.5 47t-1.5 49v0zM64 512q0 40 19 68t45 28h224q-14 -17 -23 -42t-9 -54t9 -54t23 -42h-224q-26 0 -45 28t-19 68v0zM384 0h-128v288q0 17 -4.5 33.5t-12.5 30.5h22v0h96q-2 -8 -3.5 -16t-1.5 -16v-224q0 -23 10 -38.5t17 -25.5q1 -1 2.5 -2t2.5 -3v-27
v0zM423 416h-7v0q-26 0 -45 28t-19 68t19 68t45 28h7q45 0 87.5 17t79.5 48q-7 -39 -10.5 -79.5t-3.5 -81.5t3.5 -81.5t10.5 -79.5q-37 31 -79.5 48t-87.5 17v0zM800 128q-48 0 -87 62.5t-58 161.5h81q54 0 91 46.5t37 113.5t-37 113.5t-91 46.5h-81q19 99 58 161.5t87 62.5
q33 0 62 -30t51 -82.5t34.5 -122t12.5 -149.5t-12.5 -149.5t-34.5 -122t-51 -82.5t-62 -30v0z" />
    <glyph glyph-name="uniE644" unicode="&#xe644;" 
d="M662 841q-12 11 -26.5 17t-30.5 6t-30.5 -6t-25.5 -17l-46 -46q-11 -11 -17 -25.5t-6 -30.5q0 -12 3 -22.5t9 -19.5l-435 -174q-21 -10 -36 -28.5t-19 -41.5q-5 -24 2 -46.5t24 -39.5l407 -403q14 -13 30.5 -20.5t35.5 -7.5h1h1q5 0 10 0.5t10 1.5q24 5 42.5 20.5
t27.5 37.5l170 429q10 -7 21 -10.5t23 -3.5q16 0 30.5 6.5t26.5 17.5l45 45q11 11 17 26t6 31t-6 30.5t-17 25.5l-247 248v0zM533 20q-3 -7 -9 -12.5t-14 -6.5q-2 -1 -4 -1h-4q-6 0 -11.5 2.5t-9.5 6.5l-408 403q-5 6 -7.5 13.5t-0.5 15.5q1 8 6 14t12 9l199 80
q50 -17 100.5 -21.5t101 -14t100.5 -32.5t100 -77l-151 -379v0zM864 525l-46 -45q-4 -4 -10.5 -4t-11.5 4l-57 57l-46 -115l4 10q-72 72 -144 91.5t-138 27.5q-22 2 -42.5 5t-40.5 8l272 109l-55 54q-5 5 -5 11.5t5 11.5l45 45q5 5 11.5 5t11.5 -5l247 -247q4 -5 4 -11.5
t-4 -11.5v0zM528 288q33 0 56.5 23.5t23.5 56.5t-23.5 56.5t-56.5 23.5t-56.5 -23.5t-23.5 -56.5t23.5 -56.5t56.5 -23.5v0zM528 416q20 0 34 -14t14 -34t-14 -34t-34 -14t-34 14t-14 34t14 34t34 14v0zM944 960q-33 0 -56.5 -23.5t-23.5 -56.5t23.5 -56.5t56.5 -23.5
t56.5 23.5t23.5 56.5t-23.5 56.5t-56.5 23.5v0zM944 832q-20 0 -34 14t-14 34t14 34t34 14t34 -14t14 -34t-14 -34t-34 -14v0zM256 416q0 -26 19 -45t45 -19t45 19t19 45t-19 45t-45 19t-45 -19t-19 -45v0zM320 448q13 0 22.5 -9.5t9.5 -22.5t-9.5 -22.5t-22.5 -9.5
t-22.5 9.5t-9.5 22.5t9.5 22.5t22.5 9.5v0zM384 224q0 13 9.5 22.5t22.5 9.5t22.5 -9.5t9.5 -22.5t-9.5 -22.5t-22.5 -9.5t-22.5 9.5t-9.5 22.5v0zM896 704q0 13 9.5 22.5t22.5 9.5t22.5 -9.5t9.5 -22.5t-9.5 -22.5t-22.5 -9.5t-22.5 9.5t-9.5 22.5v0z" />
    <glyph glyph-name="uniE645" unicode="&#xe645;" 
d="M940 812q42 -43 63 -96t21 -108t-21 -108t-63 -96l-351 -351q-10 -9 -23 -9t-23 9q-9 10 -9 23t9 23l347 346q33 33 49 74t16 84t-16 84.5t-49 74.5t-74.5 49t-84.5 16t-84 -16t-74 -49l-462 -457q-47 -47 -47 -113t47 -113t113 -47t113 47l467 461q28 28 28 68t-28 68
t-68 28t-68 -28l-351 -351q-9 -10 -22.5 -10t-22.5 10q-10 9 -10 22.5t10 22.5l351 351q47 47 113 47t113 -47t47 -113t-47 -113l-467 -462q-33 -32 -74 -48.5t-84 -16.5t-84.5 16.5t-74.5 48.5q-32 33 -48.5 74.5t-16.5 84.5t16.5 84.5t48.5 73.5l467 462q43 42 96 63
t108 21t108 -21t96 -63v0z" />
    <glyph glyph-name="uniE646" unicode="&#xe646;" 
d="M939 864h-139v64q0 13 -9.5 22.5t-22.5 9.5t-22.5 -9.5t-9.5 -22.5v-64h-192v64q0 13 -9.5 22.5t-22.5 9.5t-22.5 -9.5t-9.5 -22.5v-64h-192v64q0 13 -9.5 22.5t-22.5 9.5t-22.5 -9.5t-9.5 -22.5v-64h-139q-35 0 -60 -25t-25 -60v-758q0 -35 25 -60t60 -25h854
q35 0 60 25t25 60v758q0 35 -25 60t-60 25v0zM960 21q0 -8 -6.5 -14.5t-14.5 -6.5h-854q-8 0 -14.5 6.5t-6.5 14.5v758q0 8 6.5 14.5t14.5 6.5h139v-64q0 -13 9.5 -22.5t22.5 -9.5t22.5 9.5t9.5 22.5v64h192v-64q0 -13 9.5 -22.5t22.5 -9.5t22.5 9.5t9.5 22.5v64h192v-64
q0 -13 9.5 -22.5t22.5 -9.5t22.5 9.5t9.5 22.5v64h139q8 0 14.5 -6.5t6.5 -14.5v-758v0zM224 576h128v-96h-128v96zM224 416h128v-96h-128v96zM224 256h128v-96h-128v96zM448 256h128v-96h-128v96zM448 416h128v-96h-128v96zM448 576h128v-96h-128v96zM672 256h128v-96h-128
v96zM672 416h128v-96h-128v96zM672 576h128v-96h-128v96z" />
    <glyph glyph-name="uniE647" unicode="&#xe647;" 
d="M512 100l-1 -2l-340 435q-12 15 -27.5 36t-15.5 61q0 71 50 121t121 50q35 0 72.5 -13.5t69 -36.5t51.5 -54.5t20 -66.5v141q-34 52 -90.5 83.5t-122.5 31.5q-53 0 -100 -20t-81.5 -55t-54.5 -81.5t-20 -99.5q0 -66 22.5 -100.5t30.5 -55.5l416 -505v131v0zM512 100l1 -2
l340 435q12 15 27.5 36t15.5 61q0 71 -50 121t-121 50q-35 0 -72.5 -13.5t-69 -36.5t-51.5 -54.5t-20 -66.5v141q34 52 90.5 83.5t122.5 31.5q53 0 100 -20t81.5 -55t54.5 -81.5t20 -99.5q0 -66 -22.5 -100.5t-30.5 -55.5l-416 -505v131v0z" />
    <glyph glyph-name="uniE648" unicode="&#xe648;" 
d="M784 -65q-13 0 -25.5 3.5t-25.5 10.5l-165 87q-21 11 -56 11t-56 -11l-165 -87q-31 -17 -60 -13.5t-46 24.5q-9 10 -15.5 29t-1.5 49l32 184q4 25 -6.5 57t-28.5 49l-134 131q-21 20 -28.5 43.5t-0.5 45.5t27 36.5t49 18.5l185 27q25 4 52 23.5t38 41.5l83 168
q13 26 33 40.5t43 14.5t43 -14.5t33 -40.5l83 -168q11 -22 38 -41.5t52 -23.5l185 -27q29 -4 49 -18.5t27 -36.5t-0.5 -45.5t-28.5 -44.5l-134 -130q-18 -17 -28.5 -49.5t-6.5 -56.5l32 -184q5 -30 -1.5 -49t-15.5 -29q-10 -12 -24.5 -18.5t-30.5 -6.5v0zM512 132
q27 0 51.5 -5.5t43.5 -15.5l165 -86l-32 183q-7 45 9.5 97t49.5 84l133 130l-183 27q-46 6 -90 38t-65 74l-82 166l-82 -166q-21 -42 -65 -74t-90 -38l-183 -27l133 -130q33 -32 49.5 -84t9.5 -97l-32 -183l165 86q19 10 43.5 15.5t51.5 5.5v0z" />
    <glyph glyph-name="uniE649" unicode="&#xe649;" 
d="M896 612v284h-213v-126l-172 126l-511 -384h128v-555h768v555h128l-128 100v0zM512 43h-171v341h171v-341v0zM811 43h-256v384h-256v-384h-86v512l299 213l299 -213v-512v0zM811 720l-43 28v63h43v-91v0zM768 341h-171v-170h171v170v0zM725 213h-85v86h85v-86v0zM469 213
h-42v-42h42v42v0z" />
    <glyph glyph-name="uniE64A" unicode="&#xe64a;" 
d="M640 326l-43 -3.5t-101.5 -25.5t-120 -68.5t-98.5 -133.5l29 -10.5t78.5 -22.5t115.5 -22.5t140 -10.5t140 10.5t115.5 22.5t78.5 22.5l29 10.5q-37 87 -98.5 133.5t-120 68.5t-101.5 25.5l-43 3.5v0zM640 359q37 0 67.5 18t52 52t33.5 83t12 111q0 61 -26 94.5t-56.5 49
t-56.5 18l-26 2.5l-26 -2.5t-56.5 -18t-56.5 -49t-26 -94.5q0 -62 12 -111t33.5 -83t52 -52t67.5 -18v0zM320 471q24 0 45 10t38 28q-7 25 -10 53.5t-3 60.5q0 47 16 77.5t38 48.5q-24 56 -74 65.5l-50 9.5l-68 -17t-68 -119q0 -101 37.5 -159t98.5 -58v0zM448 365l-5 54
q-49 19 -86 22l-37 3l-35 -3t-83.5 -20.5t-99 -56.5t-81.5 -110l69.5 -22t171.5 -30q89 93 137.5 128l48.5 35v0z" />
    <glyph glyph-name="uniE64B" unicode="&#xe64b;" 
d="M512 299l-55.5 -5t-131.5 -33t-155 -88.5t-127 -172.5l37 -13.5t101.5 -29.5t149.5 -29t181 -13t181 13t149.5 29t101.5 29.5l37 13.5q-48 112 -127 172.5t-155 88.5t-131.5 33l-55.5 5v0zM512 341q48 0 87.5 23.5t67.5 67.5t43 107.5t15 143.5t-33 123t-73 63
t-73.5 23.5l-33.5 3.5l-33.5 -3.5t-73.5 -23.5t-73 -63t-33 -123t15 -143.5t43 -107.5t67.5 -67.5t87.5 -23.5v0z" />
    <glyph glyph-name="uniE64C" unicode="&#xe64c;" 
d="M1006 87q-23 54 -60 96.5t-79.5 75t-87.5 55t-84 35.5q48 40 75 112t27 169q0 65 -23.5 107t-57.5 66.5t-72 34.5t-67 10q-9 0 -19.5 -1t-21.5 -3q-31 27 -68.5 39.5t-69.5 12.5q-30 0 -64.5 -10.5t-64 -33.5t-49.5 -60.5t-20 -91.5q0 -85 24 -149t66 -100
q-33 -8 -71 -24t-75 -42.5t-70 -65t-56 -92.5l-18 -40l41 -16q3 -1 38 -13t93 -25q-7 -11 -13 -22.5t-11 -23.5l-18 -40l41 -17q3 -1 36 -12.5t88 -25t127.5 -24.5t154.5 -11t154.5 11t127.5 24.5t88 25t36 12.5l41 17l-18 40v0zM712 630q0 -110 -36.5 -173.5t-98.5 -63.5
t-98.5 63.5t-36.5 173.5q0 93 59 112.5t76 19.5t76 -19.5t59 -112.5v0zM398 811q3 0 14.5 -1.5t26.5 -5.5q-34 -25 -58 -67t-24 -107q0 -35 4 -67t11 -61q-48 15 -67 74t-19 124q0 78 49 94.5t63 16.5v0zM398 382l8.5 -0.5t22.5 -2.5q14 -17 30.5 -30t34.5 -22
q-50 -11 -116 -38t-124 -85q-42 7 -77 15.5t-59 15.5q34 54 81 84t90 44t74.5 16.5t34.5 2.5v0zM577 43q-52 0 -103.5 5t-97 13t-82.5 17t-61 16q7 22 26 47t27 35q45 43 95.5 67t94 35t72 13.5t29.5 2.5l21 -1.5t54 -8.5q28 -7 63 -23.5t70 -40.5t67 -56t55 -69
q-24 -8 -59 -17t-77.5 -17t-91.5 -13t-102 -5v0z" />
    <glyph glyph-name="uniE64D" unicode="&#xe64d;" 
d="M1010 86q-27 64 -64.5 111.5t-80.5 82t-87 57t-85 36.5q36 49 55.5 120.5t19.5 159.5q1 74 -25.5 123t-65 77.5t-82 40.5t-75.5 12q-33 0 -76.5 -10.5t-82.5 -39t-66.5 -76.5t-28.5 -123q-1 -88 17 -159.5t53 -121.5q-40 -13 -85 -34.5t-88 -55.5t-82 -81t-66 -111
l-18 -40l40 -16q4 -2 42.5 -16t102.5 -30t148.5 -30t180.5 -15t181 11.5t149 28t103 28.5l42 14l41 16l-17 41v0zM519 821q12 0 88.5 -24t75.5 -144q-1 -95 -26 -165t-69 -101l-74 -52l-72 53q-44 32 -67.5 102.5t-22.5 165.5q1 120 77.5 142.5t89.5 22.5v0zM512 33
q-65 0 -125 7.5t-112 18t-93.5 22t-68.5 20.5q30 51 68 87.5t79.5 61.5t84 39.5t80.5 22.5l89 18l89 -20q38 -8 80.5 -23.5t83.5 -41t78.5 -62.5t66.5 -89q-28 -8 -69.5 -19t-93 -20.5t-112 -16t-125.5 -5.5v0z" />
    <glyph glyph-name="uniE64E" unicode="&#xe64e;" 
d="M512 555q-53 0 -90.5 -37.5t-37.5 -90.5t37.5 -90.5t90.5 -37.5t90.5 37.5t37.5 90.5t-37.5 90.5t-90.5 37.5v0zM906 539q-11 3 -20 8.5t-17 12.5q-13 -24 -28.5 -48t-33.5 -49q-26 35 -56.5 69.5t-64.5 68.5q-34 33 -68.5 63.5t-69.5 57.5q41 29 81 52t77.5 39t71 24.5
t61.5 8.5q23 0 40.5 -5.5t28.5 -17.5q13 -13 18.5 -32.5t4.5 -44.5q2 0 4 0.5t4 0.5q9 0 17.5 -2t17.5 -5q2 36 -7 64.5t-28 48.5q-18 18 -43 27t-57 9q-33 0 -71 -9.5t-79.5 -27.5t-86 -44t-90.5 -59q-46 33 -90.5 59t-86 44t-79.5 27.5t-71 9.5q-7 0 -13 -0.5t-13 -1.5
q9 -8 15.5 -18.5t10.5 -22.5q29 0 62.5 -8.5t70.5 -24.5t77 -39t81 -52q-35 -27 -69.5 -57.5t-68.5 -64.5q-33 -33 -63.5 -68t-58.5 -70q-27 39 -49 77.5t-39 74.5q-11 25 -18.5 48t-11.5 43q-3 0 -6 -0.5t-7 -0.5q-8 0 -16 1.5t-15 3.5q4 -25 13 -53.5t22 -58.5
q19 -41 44 -84t56 -86q-31 -44 -56 -86.5t-44 -83.5q-38 -88 -39 -154t36 -103q17 -18 42.5 -27t56.5 -9q49 0 108.5 20.5t125 58t133.5 91t134 119.5q34 34 64.5 68.5t57.5 69.5q44 -62 72.5 -119t41 -104.5t9.5 -82.5t-23 -55q-11 -11 -28.5 -17t-40.5 -6q-30 0 -66.5 10
t-76.5 28q-4 -10 -10.5 -19.5t-14.5 -16.5q47 -22 89.5 -33.5t78.5 -11.5q32 0 57 9t43 27q27 28 33 72.5t-8.5 100.5t-47.5 121t-82 133q20 28 38.5 56.5t33.5 55.5v0zM185 7q-23 0 -40.5 6t-28.5 17q-27 27 -23.5 81.5t35.5 127.5q17 37 39 75t49 77q28 -35 58.5 -70
t63.5 -68q34 -34 69 -64.5t70 -57.5q-42 -29 -82 -52t-77 -39t-71 -24.5t-62 -8.5v0zM656 283q-35 -35 -71.5 -66.5t-72.5 -58.5q-36 27 -72.5 58.5t-71.5 66.5t-66.5 71t-58.5 73q27 36 59 72t67 71q34 35 70.5 66.5t72.5 59.5q36 -28 72.5 -59.5t71.5 -66.5
q36 -36 67.5 -72t58.5 -71q-28 -36 -59.5 -72.5t-66.5 -71.5v0zM939 683q-18 0 -30.5 -12.5t-12.5 -30.5t12.5 -30.5t30.5 -12.5q17 0 29.5 12.5t12.5 30.5t-12.5 30.5t-29.5 12.5v0zM597 128q-17 0 -29.5 -12.5t-12.5 -30.5q0 -17 12.5 -29.5t29.5 -12.5q18 0 30.5 12.5
t12.5 29.5q0 18 -12.5 30.5t-30.5 12.5v0zM85 768q18 0 30.5 12.5t12.5 30.5q0 17 -12.5 29.5t-30.5 12.5q-17 0 -29.5 -12.5t-12.5 -29.5q0 -18 12.5 -30.5t29.5 -12.5v0z" />
    <glyph glyph-name="uniE64F" unicode="&#xe64f;" 
d="M981 0v43h-42v-43h-43v427h-213v-427h-43v853h-213v-853h-43v512h-43v43h-42v-43h-86v43h-42v-555h-86v939h-85v-1024h1024v85h-43v0zM299 0h-43v427h43v-427v0zM555 0h-43v768h43v-768v0zM811 0h-43v341h43v-341v0zM171 939h42v-43h-42v43zM299 939h42v-43h-42v43z
M427 939h42v-43h-42v43zM555 939h42v-43h-42v43zM683 939h42v-43h-42v43zM811 939h42v-43h-42v43zM939 939h42v-43h-42v43zM939 811h42v-43h-42v43zM811 811h42v-43h-42v43zM683 811h42v-43h-42v43zM683 683h42v-43h-42v43zM811 683h42v-43h-42v43zM939 683h42v-43h-42v43z
M939 555h42v-43h-42v43zM811 555h42v-43h-42v43zM683 555h42v-43h-42v43zM939 427h42v-43h-42v43zM939 299h42v-43h-42v43zM939 171h42v-43h-42v43zM299 811h42v-43h-42v43zM299 683h42v-43h-42v43zM171 683h42v-43h-42v43zM171 811h42v-43h-42v43z" />
    <glyph glyph-name="uniE650" unicode="&#xe650;" 
d="M167 783q-37 -26 -66.5 -60.5t-50.5 -74.5t-32.5 -85t-11.5 -94q0 -35 6 -68.5t18 -65.5l362 134l-225 314v0zM67 480q-1 60 21 116t63 99l179 -199l-254 -85q-4 17 -6.5 34.5t-2.5 34.5v0zM568 875q-40 0 -79.5 -7.5t-77 -21.5t-72 -34t-64.5 -47l1 -1l-17 -15l272 -312
l-396 -126l6 -18h-1l2 -6t2 -5l4 -11v0q24 -66 66.5 -120t97 -92t120 -59t136.5 -21q93 0 174.5 35t142 96t96 142.5t35.5 174.5q0 92 -35.5 173.5t-96 142.5t-142 96.5t-174.5 35.5v0zM900 571l-270 -99l177 227q30 -26 53.5 -58.5t39.5 -69.5v0zM346 713q48 37 105 56.5
t117 19.5q57 0 109 -16.5t96 -47.5l-206 -265l-221 253v0zM230 297l311 99l-58 -321q-43 10 -81.5 30t-71.5 48.5t-58 65t-42 78.5v0zM568 64q-11 0 -21.5 1t-21.5 2l62 344l328 120q8 -25 12 -51t4 -53q0 -75 -28.5 -141t-78 -115.5t-115.5 -78t-141 -28.5v0z" />
    <glyph glyph-name="uniE651" unicode="&#xe651;" 
d="M1021 787l-93 -371q0 -3 -0.5 -6.5t-1.5 -5.5q-3 -6 -7.5 -10.5t-10.5 -7.5q-2 -1 -5.5 -1.5t-6.5 -0.5h-608l26 -128h550q13 0 22.5 -9.5t9.5 -22.5t-9.5 -22.5t-22.5 -9.5h-576q-13 0 -22.5 9.5t-9.5 22.5l-122 608h-102q-13 0 -22.5 9.5t-9.5 22.5t9.5 22.5t22.5 9.5
h128q13 0 22.5 -9.5t9.5 -22.5l6 -32h794q13 0 22.5 -9.5t9.5 -22.5q0 -3 -0.5 -6.5t-2.5 -6.5v0zM275 448h109v320h-173l64 -320v0zM576 768h-160v-320h160v320v0zM768 768h-160v-320h160v320v0zM800 768v-320h72l81 320h-153v0zM352 128q40 0 68 -28t28 -68t-28 -68
t-68 -28t-68 28t-28 68t28 68t68 28v0zM352 0q13 0 22.5 9.5t9.5 22.5t-9.5 22.5t-22.5 9.5t-22.5 -9.5t-9.5 -22.5t9.5 -22.5t22.5 -9.5v0zM800 128q40 0 68 -28t28 -68t-28 -68t-68 -28t-68 28t-28 68t28 68t68 28v0zM800 0q13 0 22.5 9.5t9.5 22.5t-9.5 22.5t-22.5 9.5
t-22.5 -9.5t-9.5 -22.5t9.5 -22.5t22.5 -9.5v0z" />
    <glyph glyph-name="uniE652" unicode="&#xe652;" 
d="M0 -64v96q0 54 32 92t88 63.5t133 40.5t166 24q-39 24 -69 82.5t-46 113.5v0v0q-2 0 -25 37.5t-23 90.5q0 47 2.5 82t29.5 43v1.5v1.5q0 59 28 108.5t74 78.5q12 30 45.5 49.5t76.5 19.5t76.5 -19.5t45.5 -49.5q46 -29 74 -78.5t28 -108.5v-1.5v-1.5q27 -8 29.5 -43
t2.5 -82q0 -53 -25 -90.5t-23 -37.5v0v0q-16 -55 -46 -113.5t-69 -82.5q89 -9 166 -23.5t133 -40t88 -63.5t32 -93v-96h-1024v0z" />
    <glyph glyph-name="uniE653" unicode="&#xe653;" 
d="M448 320h-96v2q-8 -1 -16 -1.5t-16 -0.5q-66 0 -124.5 25t-102 68.5t-68.5 102t-25 124.5t25 124.5t68.5 102t102 68.5t124.5 25t124.5 -25t102 -68.5t68.5 -102t25 -124.5v-128h32v-32h32v-32h32v-32h32v-32h32v-32h32v-32h32v-32h32v-32h32v-32h32v-32h32v-32h32v-192
q0 -13 -9.5 -22.5t-22.5 -9.5h-128q-13 0 -22.5 9.5t-9.5 22.5v128h-160q-13 0 -22.5 9.5t-9.5 22.5v128h-160zM256 832q-53 0 -90.5 -37.5t-37.5 -90.5t37.5 -90.5t90.5 -37.5t90.5 37.5t37.5 90.5t-37.5 90.5t-90.5 37.5v0z" />
    <glyph glyph-name="uniE654" unicode="&#xe654;" 
d="M1015 34q9 -10 9 -23t-9 -22l-44 -44q-9 -9 -22 -9t-23 9l-309 309l-4 6t-3 6q-48 -35 -105.5 -54.5t-120.5 -19.5q-80 0 -149.5 30t-122 82.5t-82.5 122t-30 149.5t30 149.5t82.5 122t122 82.5t149.5 30t149.5 -30t122 -82.5t82.5 -122t30 -149.5q0 -63 -19.5 -120.5
t-54.5 -105.5q3 -1 6 -3l6 -4l309 -309v0zM384 832q-53 0 -99.5 -20t-81.5 -55t-55 -81.5t-20 -99.5t20 -99.5t55 -81.5t81.5 -55t99.5 -20t99.5 20t81.5 55t55 81.5t20 99.5t-20 99.5t-55 81.5t-81.5 55t-99.5 20v0z" />
    <glyph glyph-name="uniE655" unicode="&#xe655;" 
d="M512 -64q-106 0 -199.5 40t-163 109.5t-109.5 163t-40 199.5t40 199.5t109.5 163t163 109.5t199.5 40t199.5 -40t163 -109.5t109.5 -163t40 -199.5t-40 -199.5t-109.5 -163t-163 -109.5t-199.5 -40v0zM927 491q1 0 1 0.5t1 1.5q0 -3 1.5 -5t3.5 -4h-0.5t0.5 -1v0.5v0.5
q2 -2 4.5 -3t5.5 -1q4 0 7.5 2t5.5 6q1 0 1 -0.5v-0.5v0.5v0.5q1 2 1.5 4t0.5 4q0 7 -4.5 11.5t-11.5 4.5q-4 0 -7.5 -2t-5.5 -5v0h-1q1 1 0 3t-2 5v-17q0 -1 -0.5 -2.5t-0.5 -2.5v0zM192 496q0 3 -6 8t-8 5l-2.5 5t-3.5 5q0 3 -6 10t-8 2q-1 -3 4 -7t5 -8q2 0 6 -7.5
t5 -9.5q14 -22 1 -14t-13 17q-3 1 -6.5 9.5t-3.5 11.5q-2 1 -5.5 8.5l-3.5 7.5q0 7 -4 10t-11 3q-1 1 -5 7.5t-5 6.5q0 2 -3.5 9t-6.5 8q0 6 -2 13t-1 13q0 7 -0.5 14t-2.5 14q-20 -43 -31 -90.5t-11 -98.5q0 -72 22 -138t61 -121t93 -96.5t118 -64.5q0 12 1.5 23t3.5 11
q0 2 1.5 7.5t2.5 5.5q0 4 0.5 9.5t-0.5 10.5q-2 4 1 8.5t4 9.5q6 3 5 26t4 23q0 17 2 29t-1 27q2 0 -4 6.5t-5 5.5q-9 0 -14.5 10.5t-5.5 15.5q-1 3 -2.5 6.5t-1.5 7.5q2 0 -7 13.5t-9 12.5q-7 4 -3 10t5 13q-7 2 -3 14t7 12q0 2 1 3.5t3 2.5q2 -6 5.5 -1t-1.5 5v9.5v8.5
q0 6 -4 12.5t-8 -5.5q-4 2 -12.5 3t-9.5 8q1 4 -4 9l-7 7q2 6 -7.5 12t-15.5 6q0 1 -1.5 1.5t-2.5 1.5q-5 0 -7.5 4.5t-8.5 4.5q-7 0 -13.5 3t-12.5 3q-2 5 -9.5 5t-9.5 5q-5 0 -7 7t-2 10q-1 4 -4 15t-9 11v0zM840 753v-1v0l0.5 -0.5l0.5 -0.5l-0.5 0.5t-0.5 1.5v0z
M850 742q0 -2 0.5 -3.5t0.5 -2.5q1 0 1.5 0.5t1.5 0.5q-1 1 -2 2.5t-2 2.5v0zM877 596q1 10 -5.5 12t-9.5 7q-3 0 -5 1.5t-6 1.5q-2 1 -4 0.5t-4 -2.5q-6 -2 -5.5 1t-3.5 3q0 6 -2.5 8t-9.5 1q-4 -8 -8 -14.5t-4 -16.5q3 0 3 -1v-4q3 0 18.5 1t15.5 4q1 0 4 -4.5t3 2.5
q3 0 5.5 -4.5t10.5 -2.5q0 -1 7 3t0 4v0zM879 433q0 2 -1 3.5t-2 3.5q3 0 -5.5 17.5t-8.5 21.5q-2 1 -4 6.5t-3 7.5q-3 2 -5.5 7t-3.5 9q-3 2 -8.5 8.5t-6.5 10.5q4 -1 9 -0.5t5 5.5q-3 0 -3 2.5t2 2.5q-1 3 1 6t3 6q0 3 1 7.5t1 8.5q-3 0 -5 -0.5t-5 -1.5q0 -2 -5 -0.5
t-6 1.5q-2 3 -10 0t-11 3q-5 4 -5 8t-2 11q-1 3 -4.5 4t-5.5 1q-8 2 -5.5 -5.5t1.5 -9.5q5 0 1 -4.5t-4 -7.5q-8 2 -8.5 8.5t-4.5 8.5q-2 3 -2 4.5t-3 1.5q0 3 0.5 7.5t-2.5 5.5q0 1 -4.5 2t-5.5 3q-5 0 -12.5 9.5t-10.5 4.5q-1 -3 1 -5t2 -4q6 1 8 -6t9 -6q0 -1 0.5 -2.5
t0.5 -3.5q5 1 6 -2t4 -3q-2 -3 -6 0t-3 -2q1 -4 0 -7t-5 -6q0 4 -0.5 11t-4.5 7q-3 5 -9 6t-9 5q-3 0 -4.5 5.5t-6.5 6.5q-1 -1 -3 -2t-4 -1q-2 -5 -11.5 -3t-9.5 1l-5 -12.5t-6 -14.5q-1 -6 -4 -7.5t-4 -6.5q-1 -2 -11 -2t-10 -2q-7 2 -11.5 6.5t-4.5 11.5q-1 0 0.5 12.5
t2.5 15.5q1 0 1.5 -1t1.5 -2q4 1 11 0.5t7 3.5q3 0 4.5 -1.5t-0.5 -4.5h8.5t4.5 5q-2 0 -2.5 0.5t-0.5 2.5q7 7 0 13t-7 10q-2 1 -5 4t0 1q3 -1 10 -2.5t3 5.5q0 1 0.5 1h0.5q1 -1 4.5 -3.5t3.5 2.5q2 0 5 2t-2 2q1 3 1 5v4q7 -4 6.5 0t2.5 7q0 -5 3 -1t6 4q3 4 8 3.5t6 3.5
q-3 1 -3.5 8t-0.5 10q5 -1 9 2.5t4 -0.5q1 -2 1 -5.5t1 -4.5q6 -3 6 0.5v6.5q-2 0 -4 5.5t-3 9.5q-1 -1 -3.5 -1.5t-3.5 -1.5q-6 0 -10.5 1.5t-9.5 1.5q-1 0 -5 5t-3 5q-4 6 0.5 6h5.5q0 6 16 7.5t17 10.5q-8 0 1.5 9l9.5 9q5 4 9 7.5t11 4.5q2 0 23.5 5t21.5 1h4.5h7.5
q-30 28 -64.5 50t-73 37.5t-80.5 24t-86 8.5q-43 0 -83.5 -8t-78 -22.5t-71.5 -35.5t-64 -47q1 -1 1 -2.5v-1.5q3 0 7 0.5t5 -3.5q-2 0 -3.5 0.5t-2.5 0.5q1 -9 -3 -6.5t-8 2.5l-1.5 0.5t-3.5 0.5q-1 -1 -2.5 -2t-2.5 -2v-1v0q1 0 1.5 -2t4.5 -3t9 -2l10 -2q3 -1 6 0t6 1
l4.5 2.5t-1.5 2.5q1 4 -0.5 5t-4.5 1q0 3 6 2t9 -1q2 4 1.5 5t1.5 5q3 5 5.5 4t4.5 3q3 -1 5 -2.5t3 -5.5q2 -1 9.5 -10t7.5 2q3 -1 5 -6.5t2 -9.5q7 1 8.5 5.5t1.5 9.5q2 0 1 2t-1 3q2 1 4.5 -0.5t2.5 1.5q1 0 1.5 -0.5t0.5 -2.5q3 0 5.5 0.5t5.5 -0.5q1 -1 0.5 -6.5
t-0.5 -8.5q-1 -4 -5.5 -4.5t-4.5 -2.5q-8 -6 2 -9.5t13 -6.5q-2 0 -6 0.5l-4 0.5q-4 0 -11 -2t-11 1q5 0 7 4.5t3 10.5q-5 1 -9 -1t-5 -7q-2 -7 -6 -4t-6 -1q-1 -1 -7 -3.5t-6 -0.5q-9 -2 -9 -8.5v-15.5q4 -2 9.5 -7.5t5.5 -8.5q8 -2 12.5 -3t12.5 -2q1 -1 3 -2t3 -2
q0 -5 4 -5h8q0 6 5 -1t5 -9q-1 0 1 -4.5t2 -6.5q-1 0 -1 -0.5v-1.5q4 -1 8.5 -0.5t5.5 4.5q-4 0 -3.5 3t0.5 5q-4 3 -3.5 6.5t3.5 4.5q0 -3 7 0.5t0 5.5q2 4 2.5 9t-2.5 8q-1 2 -3 1.5t-3 2.5q5 1 3.5 7.5t-1.5 10.5q1 1 4 0t3 0q4 0 10 -2.5t9 4.5q7 -4 6 -6t6 0q0 -1 6 -7
t7 -6q0 -1 0.5 -2.5t2.5 -1.5q0 -2 -1 -1t-1 -2q1 0 5 -0.5t4 1.5q4 0 6.5 3.5t2.5 7.5q2 1 5.5 -8t6.5 -9q2 -3 7 -7t5 -7q1 -2 2 -2.5t1 -4.5q2 0 4.5 3.5t2.5 -3.5q2 0 5.5 -2.5t4.5 -5.5q-5 0 -3 -2.5t-1 -2.5q0 -4 -6 -2.5t-8 1.5q-3 -13 -16 -9.5t-23 0.5
q-6 -2 -13.5 -11t-8.5 -15q7 0 10.5 4t9.5 6q5 0 7 2.5t6 3.5q0 -1 1 -1t1 -2q-8 0 -6 -4t5 -8q1 -2 3 -3.5t3 -2.5q0 -1 -1 -2.5t-1 -2.5v0v0q-2 -1 -4.5 -2t-2.5 -2q-9 -1 -7.5 -0.5t1.5 2.5q1 -1 3 -0.5l2 0.5q0 3 -0.5 3.5t-0.5 1.5q-5 0 -8 -1.5t-7 -1.5l-3.5 -3.5
t-4.5 -2.5q-1 -3 -3.5 -8.5t-5.5 -7.5q0 1 -5.5 -3t-4.5 -4q-2 -3 -3.5 -4t-2.5 -6q-1 0 -2.5 -5.5t-1.5 -6.5q-4 -2 -6.5 -9t-8.5 -7q-3 -7 -8 -9.5t-5 -12.5q2 -2 3 -9.5t2 -11.5q0 -4 0.5 -7.5t-5.5 -3.5q0 1 -2.5 5t-1.5 4q0 2 -2.5 8t-3.5 8q-3 3 -6.5 1.5t-7.5 -0.5
q-1 3 -8 4t-11 1q1 -2 2 -3.5t1 -3.5q-2 -1 -4.5 -2t-5.5 -1q-5 1 -6 3.5t-7 2.5q-9 -1 -14.5 -7.5t-5.5 -15.5q-1 0 -1 -11.5t1 -11.5q0 -5 3 -8.5t3 -7.5q4 0 8 -5.5t8 -5.5q0 -4 -0.5 -4.5t6.5 -0.5l2.5 2t2.5 4q-4 1 -1.5 5.5t5.5 5.5q0 -4 4 -1l4 3l4 1.5l4 1.5
q0 5 2.5 2t-0.5 -5q-3 0 -4 -3.5t-2 -3.5q-1 -4 -2.5 -7t-1.5 -7q-2 -4 0.5 -6t0.5 -6q5 -1 9.5 -0.5t9.5 0.5v1.5t-1 1.5q7 0 4.5 -8.5t1.5 -8.5q0 -5 1.5 -8.5t1.5 -6.5q3 -2 5 -5t1 -7h10t6 5q6 0 7 -3.5t1 -7.5q11 0 9 8t3 8q0 2 1 2t2 -1q2 -1 4 1.5t4 3.5q1 0 2.5 1
l1.5 1q2 -1 2.5 -1t1.5 -2q3 0 6 1.5t6 3.5q4 0 5 -6t9 -7q3 0 8.5 -0.5t8.5 1.5q1 1 2.5 -0.5l2.5 -2.5q2 0 2.5 -1.5t1.5 -1.5l1 -1h1q0 -1 1.5 -1.5t3.5 -3.5q0 -3 3 -4t3 -2q4 -2 2.5 -3t3.5 -3q4 -1 7 -2l6 -2q1 5 4 2.5t4 -2.5q1 -2 2 -1.5t1 -1.5q6 -5 5 -5.5t1 -4.5
q2 -2 3.5 -6.5t1.5 -8.5q-2 0 -1 -5.5l1 -5.5q-3 0 2.5 -2.5t5.5 3.5q4 0 6.5 -3t5.5 -3q-2 -3 1.5 -4.5t3.5 3.5q5 0 5 -6v-9q4 0 6 1.5t5 2.5q4 2 8 3.5t9 1.5q13 0 22.5 -9.5t9.5 -22.5q0 -12 -8 -20.5t-19 -10.5l-3 -3l-1 -1q0 -2 -0.5 -9.5l-0.5 -7.5q0 -2 -1.5 -11
t-3.5 -9q0 -7 -3 -9.5t-4 -9.5q-4 -2 -11 -6t-9 -7q-2 0 -4.5 -1.5t-5.5 -1.5l-4 -4t-2 -4q-1 -4 -1 -11.5t-2 -10.5q-1 -2 -2.5 -2.5t-1.5 -3.5q-3 0 -2 -1.5t-4 -1.5q-3 0 -7.5 -3.5t-4.5 -7.5q0 -5 -2 -8.5t-6 -6.5q0 -2 -5 -3t-5 -5q1 0 0.5 -5.5t-0.5 -6.5
q-2 0 -6 -1.5t-5 -3.5q-8 0 -9.5 -1t-6.5 -5q0 -1 -0.5 -3.5t-1.5 -2.5q0 -5 -3.5 -3t-6.5 -1q1 0 2.5 -4t0.5 -4q0 -5 -2.5 -6.5t-5.5 -5.5q-2 -1 -3.5 -4t-2.5 -3q0 -4 -1 -7t-1 -6q1 0 0.5 -1.5t0.5 -2.5q1 1 1.5 2t1.5 1q0 3 2.5 0.5t-0.5 -2.5q-2 -4 -4.5 -5.5
t-3.5 -6.5q-2 0 -3 -1t-2 -3q28 -7 57.5 -11.5t60.5 -4.5q59 0 114 14.5t103 41.5t88.5 64.5t70.5 84.5q0 8 1 15.5t2 9.5q3 -1 4.5 -3t3.5 3q-4 1 -4 3t2 5q1 -1 4 -2t5 -1q1 2 2 3.5t1 3.5q-2 1 0 4.5t3 0.5q1 1 1.5 2.5t0.5 2.5v0v0q0 2 0.5 2.5l1.5 1.5v-0.5v-0.5
q21 44 32.5 92.5t11.5 100.5v3.5v3.5q-1 -3 -2 -5t-3 -3q0 -1 -11 -7t-10 -9q-3 0 -11 -2.5t-10 -6.5q-2 0 -8.5 -2t-7.5 -4q-10 0 -11.5 8.5t-6.5 8.5v0zM944 608h-17v0v0q-1 0 -3 4.5t0 5.5h1.5h0.5q-1 3 -2 5.5t-2 5.5q-3 -2 -5.5 -4t-6.5 -2q0 -1 -2.5 -8t2.5 -7h0.5
h0.5q-6 -1 -10.5 -5.5t-4.5 -10.5q0 -7 4.5 -11.5t11.5 -4.5h6q1 -2 2.5 -4t5.5 -3q1 -5 8 -6.5t9 4.5q-4 0 -4 3t1 6h4q7 0 11.5 4.5t4.5 11.5t-4.5 11.5t-11.5 4.5v0zM897 400h5t4 1q5 0 11 1t11 2q0 -7 -4 -12t-3 -13q-4 0 -3.5 -3t0.5 -4q-3 -2 -4 -4.5t-4 -4.5
q0 -3 -5.5 -8t-7.5 -8q-3 -3 -8.5 -8t-6.5 -9q0 1 -8.5 -9t-5.5 -10q0 -3 -1.5 -19t3.5 -16q0 -2 2.5 -15t-0.5 -13q0 -6 -2.5 -10.5t-2.5 -9.5q-2 -1 -4.5 -2t-3.5 -3q-4 0 -6 -5t-3 -5q0 -8 -1.5 -15t-1.5 -16l-3.5 -8.5t-3.5 -9.5q-4 -3 -12 -11t-8 -14l-5 -7t-6 -9
q-2 0 -14 -2.5t-12 -3.5q-4 0 -11.5 -1.5t-9.5 2.5q0 3 -1.5 7.5t-1.5 9.5q-2 0 -2.5 5t-2.5 5q0 2 -7.5 17t-5.5 15q0 2 -1 7.5t-2 5.5q0 8 -4 15t-4 14q-1 0 -3.5 10.5t-0.5 10.5q0 9 2 15.5t3 16.5q2 10 0.5 17t-3.5 14q-1 0 -3.5 4t-2.5 5q-5 4 -6.5 9.5t-1.5 10.5
q3 4 4 14t0 14q-6 3 -9.5 2.5t-9.5 -0.5q-4 8 -22.5 6t-25.5 -2q0 -4 -12 -1t-13 6q-4 0 -10.5 7t-6.5 11q-5 3 -10.5 14.5t-5.5 17.5q-4 2 -3.5 7.5t2.5 5.5q1 2 -0.5 7.5t-2.5 8.5q-1 2 1 5t2 5q0 8 1 13.5t5 13.5q2 3 3.5 6t2.5 6q3 6 4.5 4t4.5 3q3 2 5 6t6 7q1 2 1 3
t-1 2l2.5 6.5t2.5 8.5q4 6 3.5 5t4.5 -2q1 2 3.5 5.5t5.5 3.5q1 2 3.5 3.5t4.5 1.5q0 -4 6.5 -1.5t7.5 2.5q2 3 9.5 6t9.5 3q0 4 14.5 1.5t17.5 -2.5v1.5v1.5q4 -1 10 -13.5t5 -16.5h7h5q0 -4 5 -5t8 -2q5 0 14.5 1.5t9.5 7.5q3 0 5.5 -2t1.5 -6q4 -1 20 -2t14 -6
q4 0 5.5 -4t4.5 -4q0 -4 3.5 -11.5t6.5 -7.5q0 -3 2 -8.5t5 -7.5q2 -5 6.5 -13t9.5 -11q-2 -4 1.5 -8t5.5 -8q-1 0 0.5 -4t2.5 -5q0 -4 6.5 -16t11.5 -12q0 -2 -2 -3t4 -1v0zM731 572q1 3 3 1.5t4 -1.5q4 -2 4.5 -1t3.5 3q0 -9 -4.5 -6t-10.5 4v0zM715 595q2 0 2 -7t-7 -5
q0 3 -0.5 6.5t3.5 3.5q1 -4 1.5 -3t0.5 5v0zM711 604q3 -1 4 -1t1 2q3 -1 1 -3t-3 -5l-1.5 3t-1.5 4v0zM629 672q-6 2 1 3.5t7 2.5q-2 0 -3 1.5t0 3.5t2.5 -0.5t3.5 -1.5q2 0 5 1.5t1 -5.5q-3 -7 -6 -11.5t-12 -4.5q-3 3 -1.5 5.5t2.5 5.5v0zM657 703q5 0 3 -2t-3 -2
q1 0 0.5 -2.5l-0.5 -2.5q4 0 5 1.5t5 2.5q-1 -4 -3.5 -5.5t2.5 -4.5q2 -2 3.5 -4t0.5 -5q6 0 7 -4.5t0 -10.5h3.5t0.5 3q3 0 3 -2t-3 -2q-3 -6 -9 -6.5t-11 -0.5q0 4 -1 4.5t-5 -0.5q-5 -1 -3.5 3t2.5 7h6.5t-0.5 2q0 6 -2 8.5t-8 2.5q0 4 -1 5.5t-1 5.5q-1 7 3 4.5t6 4.5v0
zM655 654q0 -2 -2 -2.5t-3 1.5h1v1h2h2v0zM592 736h-32q-7 0 -11.5 4.5t-4.5 11.5t4.5 11.5t11.5 4.5h32q7 0 11.5 -4.5t4.5 -11.5t-4.5 -11.5t-11.5 -4.5v0zM406 453q1 0 2 -0.5t1 -2.5q-1 0 -3 -0.5t0 3.5v0zM376 451q-1 -2 -6.5 -1.5t-6.5 2.5q3 0 5.5 -0.5t5.5 0.5
q0 2 -1 3t-2 3q3 0 6.5 -1.5t8.5 -1.5q0 3 -1 1.5t1 2.5q1 -1 4.5 -4t3.5 -5q-6 1 -8.5 1h-9.5v0zM343 470q-3 0 -8 2t-6 5q3 -1 5.5 -1t4.5 3q7 -1 9.5 -4.5t8.5 -3.5q1 -2 4.5 -5.5t-2.5 -3.5q-5 -1 -10 1.5t-6 6.5v0zM349 448h-4.5t-1.5 5q3 -1 4.5 -2t1.5 -3v0zM354 449
q-1 0 -2 -0.5t-3 -0.5q1 3 2.5 4.5t2.5 -3.5v0zM382 415q0 -1 -0.5 -1.5t-2.5 -0.5q1 1 1 1.5v1.5q1 0 1.5 -0.5l0.5 -0.5v0zM313 479q1 0 1.5 -0.5t1.5 -0.5q0 -3 1.5 -2.5t3.5 1.5q0 -3 -5 -3.5t-3 5.5v0z" />
    <glyph glyph-name="uniE656" unicode="&#xe656;" 
d="M736 896q-58 0 -105 -20.5t-88 -61.5v0v0v0l-31 -39l-31 37v0v0v0q-41 40 -88 62t-105 22t-110.5 -22t-93.5 -62q-40 -41 -62 -93.5t-22 -110.5t22 -110.5t62 -93.5l383 -385q9 -9 20.5 -14t24.5 -5t24.5 5t20.5 14l383 385q40 41 62 93.5t22 110.5t-22 110.5t-62 93.5
q-41 40 -93.5 62t-110.5 22v0v0z" />
    <glyph glyph-name="uniE657" unicode="&#xe657;" 
d="M987 64h-950q-16 0 -26.5 -10.5t-10.5 -25.5v-57q0 -14 10.5 -24.5t26.5 -10.5h950q16 0 26.5 10.5t10.5 24.5v57q0 15 -10.5 25.5t-26.5 10.5v0zM683 576h-342l-85 -191h512zM568 926l-9.5 17t-43.5 17q-35 0 -44.5 -17.5l-9.5 -17.5l-93 -284h293l-93 285v0zM803 321
h-577l-89 -225h755z" />
    <glyph glyph-name="uniE658" unicode="&#xe658;" 
d="M414 65q0 -1 -0.5 -1.5l-1.5 -1.5q-30 -28 -67.5 -43t-76 -15.5t-75.5 13.5t-66 42q-62 58 -62.5 134.5t63.5 141.5q1 0 1.5 0.5t0.5 1.5q1 0 1.5 0.5t0.5 1.5l533 518q37 35 87.5 35.5t86.5 -33.5q21 -31 27.5 -82t-29.5 -87l-4 -4l-50 -49l-46 -44l-432 -420l-2 2
l-1 -1l-2 -3v0v0q-14 -12 -32 -12t-31 12q-12 12 -12 28t12 30q1 0 1 0.5t1 0.5l403 392l-49 47l-354 -345l-44 -47v0v0v0l-0.5 -0.5l-0.5 -0.5q-33 -33 -36 -76t29 -75q33 -32 80 -30t81 34v0l1 1v0v0v0v0l482 460l50 49l4 4v0q29 28 38 65.5t6 75.5t-15 71t-25 52
q-56 54 -136 53t-137 -57q-1 -1 -2 -1.5t-1 -1.5v0l-529 -514l-0.5 -0.5l-0.5 -0.5l-1.5 -1.5l-1.5 -1.5v0v0q-40 -40 -60 -88.5t-20 -99t19 -98.5t58 -85q39 -38 89 -57t102 -18t102.5 21t91.5 59q0 1 0.5 1t0.5 1v0l561 545l-49 47l-561 -545v0z" />
    <glyph glyph-name="uniE659" unicode="&#xe659;" 
d="M892 448q30 33 51.5 65.5t34.5 64.5q14 37 13.5 68.5t-15.5 57.5q-16 26 -44 42t-69 23q-35 5 -75.5 3.5t-85.5 -9.5q-15 42 -34 76t-41 60q-26 30 -55 45.5t-60 15.5q-32 0 -61 -15.5t-55 -45.5q-22 -26 -40.5 -60.5t-33.5 -75.5q-45 8 -85.5 9.5t-75.5 -3.5
q-40 -7 -68.5 -23t-44.5 -42q-15 -26 -15.5 -57.5t13.5 -68.5q13 -32 34.5 -64.5t51.5 -65.5q-30 -34 -51.5 -66.5t-34.5 -63.5q-14 -37 -13.5 -68.5t16.5 -57.5q15 -26 43.5 -42.5t68.5 -22.5q35 -5 75.5 -3.5t85.5 9.5q15 -42 34 -76t41 -60q25 -30 54 -45.5t61 -15.5
q31 0 60 15.5t55 45.5q22 26 41 60t34 76q45 -8 85.5 -10t74.5 4q41 6 69 22t44 43q16 26 16.5 57.5t-14.5 68.5q-12 31 -33.5 63.5t-51.5 66.5v0zM443 38q-16 21 -30 48.5t-25 61.5q31 8 62.5 19t61.5 24q31 -13 62.5 -24t62.5 -19q-12 -34 -26 -61.5t-30 -48.5
q-34 -42 -69.5 -42t-68.5 42v0zM581 857q16 -20 30 -48t26 -61q-29 -8 -60.5 -19t-64.5 -24q-32 13 -63.5 24t-61.5 19q12 34 26 61.5t30 47.5q33 43 68.5 43t69.5 -43v0zM752 486q12 -10 24 -19.5t22 -19.5q-7 -6 -14.5 -12.5t-14.5 -12.5q-5 -4 -9 -7.5t-8 -6.5v20.5v19.5
v18.5v19.5v0zM745 575q-4 33 -10 64.5t-14 61.5q36 7 68 9t59 -1q28 -3 46 -12t27 -23q9 -15 8 -34.5t-12 -44.5q-10 -24 -28 -49t-43 -52q-24 22 -49 42t-52 39v0zM512 264q-21 10 -42.5 21t-42.5 22q-24 14 -44 26.5t-36 23.5q-2 20 -3 43t-1 48q0 26 1 49t3 42
q17 12 37.5 24.5t43.5 24.5q20 12 41.5 22.5t42.5 20.5q22 -10 43 -21t41 -21q22 -13 42.5 -25t39.5 -24q2 -21 3 -43.5t1 -48.5q0 -25 -1 -48.5t-3 -43.5q-18 -12 -38.5 -24t-42.5 -25q-20 -11 -41.5 -22t-43.5 -21v0zM632 646q-8 5 -17 9.5t-19 10.5q16 5 30.5 10t28.5 9
q4 -15 7 -29.5t5 -29.5q-8 5 -17 10l-18 10v0zM369 685q15 -4 29.5 -9t28.5 -11q-9 -4 -17.5 -9t-16.5 -9q-10 -6 -19 -11t-17 -10l6 30t6 29v0zM273 408q-13 10 -24.5 20t-22.5 20q11 9 22.5 19t24.5 19q0 -9 -0.5 -18.5t-0.5 -19.5t0.5 -20t0.5 -20v0zM303 702
q-8 -31 -13.5 -62.5t-9.5 -63.5q-28 -19 -53.5 -40t-48.5 -42q-25 27 -43 52t-29 49q-11 25 -11.5 44.5t8.5 34.5t27 23.5t46 12.5q8 1 17 1.5t19 0.5q20 0 43 -2.5t48 -7.5v0zM107 300q11 24 28.5 49.5t42.5 51.5q23 -21 48.5 -42t53.5 -41q4 -31 9.5 -62.5t13.5 -61.5
q-36 -7 -68 -9t-59 1q-28 3 -46 12t-27 24t-8 34.5t12 43.5v0zM392 250q8 -5 17 -10t19 -10q-15 -6 -30 -10.5t-29 -8.5q-4 14 -6.5 28.5t-5.5 29.5q9 -5 17.5 -10t17.5 -9v0zM655 211q-14 4 -29 8.5t-30 10.5q9 4 18 9t19 10q8 5 17 10t17 10q-3 -16 -5.5 -30.5t-6.5 -27.5
v0zM721 194q7 30 13 61.5t10 63.5q28 20 53.5 40.5t48.5 41.5q24 -27 42 -52t29 -49q11 -25 12 -44.5t-8 -33.5q-9 -15 -27.5 -24t-45.5 -12q-8 -1 -16.5 -1.5t-17.5 -0.5q-21 0 -44.5 2.5t-48.5 7.5v0z" />
    <glyph glyph-name="uniE900" unicode="&#xe900;" 
d="M1024 370l-512 397l-512 -397v162l512 397l512 -397v-162zM896 384v-384h-256v256h-256v-256h-256v384l384 288z" />
    <glyph glyph-name="uniE902" unicode="&#xe902;" 
d="M1024 352l-192 192v288h-128v-160l-192 192l-512 -512v-32h128v-320h320v192h128v-192h320v320h128v32z" />
    <glyph glyph-name="uniE906" unicode="&#xe906;" 
d="M384 320l128 64l448 448l-64 64l-448 -448l-64 -128v0zM289 93q-23 50 -52.5 79.5t-79.5 52.5l99 273l128 78l384 384h-192l-384 -384l-192 -640l640 192l384 384v192l-384 -384l-78 -128z" />
    <glyph glyph-name="uniE907" unicode="&#xe907;" 
d="M0 -64q48 144 135 322t214.5 334t296 262t378.5 106q-99 -79 -174 -199t-140.5 -232t-127.5 -192.5t-134 -80.5h-168h-24l-192 -320h-64v0z" />
    <glyph glyph-name="uniE90B" unicode="&#xe90b;" 
d="M865 487q-25 69 -62.5 134t-83.5 124.5t-99 113.5t-108 101q-55 -47 -108 -101t-99 -113.5t-83.5 -124.5t-62.5 -134q-15 -43 -23 -87t-7 -88t11 -87t32 -84q25 -46 61 -84t80.5 -65t95 -41.5t103.5 -14.5t103.5 14.5t95 41.5t80.5 65t61 84q22 41 32 84t11 87t-7 88
t-23 87v0zM739 201q-33 -62 -95 -99.5t-132 -37.5q-41 0 -80 13.5t-72 37.5q10 -2 20 -2.5t20 -0.5q44 0 86 12t79 34.5t67.5 54t50.5 70.5q34 64 35.5 128t-11.5 117q11 -22 20.5 -43t16.5 -41q17 -48 23 -113t-28 -130v0z" />
    <glyph glyph-name="uniE90C" unicode="&#xe90c;" 
d="M1024 384v384h-192v64q0 26 -19 45t-45 19h-704q-26 0 -45 -19t-19 -45v-192q0 -26 19 -45t45 -19h704q26 0 45 19t19 45v64h128v-256h-576v-128h-32q-13 0 -22.5 -9.5t-9.5 -22.5v-320q0 -13 9.5 -22.5t22.5 -9.5h128q13 0 22.5 9.5t9.5 22.5v320q0 13 -9.5 22.5
t-22.5 9.5h-32v64h576v0zM768 768h-704v64h704v-64v0z" />
    <glyph glyph-name="uniE90D" unicode="&#xe90d;" 
d="M960 832v0v0v-768v0v0h-896v0v0v768v0v0h896v0zM960 896h-896q-26 0 -45 -19t-19 -45v-768q0 -26 19 -45t45 -19h896q26 0 45 19t19 45v768q0 26 -19 45t-45 19v0v0zM832 672q0 -40 -28 -68t-68 -28t-68 28t-28 68t28 68t68 28t68 -28t28 -68v0zM896 128h-768v128
l224 384l256 -320h64l224 192v-384z" />
    <glyph glyph-name="uniE90E" unicode="&#xe90e;" horiz-adv-x="1152" 
d="M1088 832h-64v64q0 26 -19 45t-45 19h-896q-26 0 -45 -19t-19 -45v-768q0 -26 19 -45t45 -19h64v-64q0 -26 19 -45t45 -19h896q26 0 45 19t19 45v768q0 26 -19 45t-45 19v0zM128 768v-640h-64v0v0v768v0v0h896v0v0v-64h-768q-26 0 -45 -19t-19 -45v0v0zM1088 0v0v0h-896
v0v0v768v0v0h896v0v0v-768v0zM960 608q0 -40 -28 -68t-68 -28t-68 28t-28 68t28 68t68 28t68 -28t28 -68v0zM1024 64h-768v128l224 384l256 -320h64l224 192v-384z" />
    <glyph glyph-name="uniE90F" unicode="&#xe90f;" 
d="M304 352q0 -43 16.5 -81t44.5 -66t66 -44.5t81 -16.5t81 16.5t66 44.5t44.5 66t16.5 81t-16.5 81t-44.5 66t-66 44.5t-81 16.5t-81 -16.5t-66 -44.5t-44.5 -66t-16.5 -81v0zM960 704h-224q-12 48 -30 88t-66 40h-256q-48 0 -66 -40t-30 -88h-224q-26 0 -45 -19t-19 -45
v-576q0 -26 19 -45t45 -19h896q26 0 45 19t19 45v576q0 26 -19 45t-45 19v0zM512 68q-59 0 -110.5 22.5t-90 61t-61 90t-22.5 110.5t22.5 110.5t61 90t90 61t110.5 22.5t110.5 -22.5t90 -61t61 -90t22.5 -110.5t-22.5 -110.5t-61 -90t-90 -61t-110.5 -22.5v0zM960 512h-128
v64h128v-64v0z" />
    <glyph glyph-name="uniE925" unicode="&#xe925;" 
d="M918 603q-17 23 -39.5 48.5t-47.5 51.5q-26 25 -51.5 47.5t-48.5 39.5q-39 28 -59.5 35t-31.5 7h-368q-33 0 -56.5 -23.5t-23.5 -56.5v-736q0 -33 23.5 -56.5t56.5 -23.5h608q33 0 56.5 23.5t23.5 56.5v496q0 11 -7 31.5t-35 59.5v0zM785 657q23 -23 41.5 -43.5
t31.5 -37.5h-154v154q17 -13 37.5 -31.5t43.5 -41.5v0v0zM896 16q0 -7 -4.5 -11.5t-11.5 -4.5h-608q-7 0 -11.5 4.5t-4.5 11.5v736q0 7 4.5 11.5t11.5 4.5h57.5h126.5h126.5h57.5v-224q0 -13 9.5 -22.5t22.5 -9.5h224v-496v0zM603 918q-39 28 -59.5 35t-31.5 7h-368
q-33 0 -56.5 -23.5t-23.5 -56.5v-736q0 -29 18.5 -51t45.5 -27v814q0 7 4.5 11.5t11.5 4.5h487q-7 6 -14 11.5t-14 10.5v0z" />
    <glyph glyph-name="uniE92C" unicode="&#xe92c;" 
d="M640 704v256h-448l-192 -192v-576h384v-256h640v768h-384v0zM192 869v-101h-101l101 101v0zM64 256v448h192v192h320v-192l-192 -192v-256h-320v0zM576 613v-101h-101l101 101v0zM960 0h-512v448h192v192h320v-640v0z" />
    <glyph glyph-name="uniE92D" unicode="&#xe92d;" 
d="M704 832h-128v64q0 26 -19 45t-45 19h-128q-26 0 -45 -19t-19 -45v-64h-128v-128h512v128v0zM512 832h-128v64v0v0h128v0v0v-64v0zM832 640v160q0 13 -9.5 22.5t-22.5 9.5h-64v-64h32v-128h-192l-192 -192v-256h-256v576h32v64h-64q-13 0 -22.5 -9.5t-9.5 -22.5v-640
q0 -13 9.5 -22.5t22.5 -9.5h288v-192h640v704h-192v0zM576 549v-101h-101l101 101v0zM960 0h-512v384h192v192h320v-576v0z" />
    <glyph glyph-name="uniE941" unicode="&#xe941;" 
d="M512 960q-106 0 -199.5 -40t-163 -109.5t-109.5 -163t-40 -199.5t40 -199.5t109.5 -163t163 -109.5t199.5 -40t199.5 40t163 109.5t109.5 163t40 199.5t-40 199.5t-109.5 163t-163 109.5t-199.5 40v0zM320 448q0 80 56 136t136 56t136 -56t56 -136t-56 -136t-136 -56
t-136 56t-56 136v0zM926 277v0l-177 73q9 23 14 47.5t5 50.5t-5 50.5t-14 47.5l177 73q16 -39 25 -82t9 -89t-9 -89t-25 -82v0v0zM683 862v0v0l-73 -177q-23 9 -47.5 14t-50.5 5t-50.5 -5t-47.5 -14l-73 177q39 16 82 25t89 9t89 -9t82 -25v0zM98 619l177 -73
q-9 -23 -14 -47.5t-5 -50.5t5 -50.5t14 -47.5l-177 -73q-16 39 -25 82t-9 89t9 89t25 82v0zM341 34l73 177q23 -9 47.5 -14t50.5 -5t50.5 5t47.5 14l73 -177q-39 -16 -82 -25t-89 -9t-89 9t-82 25v0z" />
    <glyph glyph-name="uniE947" unicode="&#xe947;" 
d="M512 960q-66 0 -124.5 -25t-102 -68.5t-68.5 -102t-25 -124.5q0 -120 50 -245t110 -227t110 -167l50 -65l50 65t110 167t110 227t50 245q0 66 -25 124.5t-68.5 102t-102 68.5t-124.5 25v0zM512 448q-80 0 -136 56t-56 136t56 136t136 56t136 -56t56 -136t-56 -136
t-136 -56v0z" />
    <glyph glyph-name="uniE94B" unicode="&#xe94b;" 
d="M0 768l320 128v-768l-320 -128v768zM384 928l320 -192v-736l-320 160v768zM768 736l256 192v-768l-256 -192v768z" />
    <glyph glyph-name="uniE94C" unicode="&#xe94c;" 
d="M672 768l-320 128l-352 -128v-768l352 128l320 -128l352 128v768l-352 -128v0zM384 814l256 -102v-630l-256 102v630v0zM64 723l256 93v-632l-256 -93v632v0zM960 173l-256 -93v632l256 93v-632v0z" />
    <glyph glyph-name="uniE96D" unicode="&#xe96d;" horiz-adv-x="1152" 
d="M480 960v0q99 0 186.5 -30.5t153 -83t103 -123.5t37.5 -151q0 -81 -37.5 -151.5t-103 -123.5t-153 -83.5t-186.5 -30.5q-19 0 -38 1t-37 4q-38 -39 -79.5 -62.5t-85 -37t-87.5 -18.5t-89 -6v25q48 24 82 64.5t34 89.5q0 7 -0.5 13.5t-1.5 13.5q-41 26 -74 59.5t-56 72
t-35.5 81.5t-12.5 89q0 80 37.5 151t103 123.5t153 83t186.5 30.5v0zM996 89q0 -42 25 -76.5t67 -54.5v-22q-77 2 -148.5 21t-138.5 85q-16 -2 -32 -3t-33 -1q-72 0 -136.5 18.5t-117.5 50.5q55 0 107 9t101 25.5t93.5 40.5t83.5 56q39 31 70 68.5t53 78.5q23 44 34.5 91
t11.5 96q0 7 -0.5 15t-0.5 16q54 -45 85.5 -104.5t31.5 -127.5q0 -78 -42 -145.5t-112 -113.5q-1 -5 -1.5 -11t-0.5 -12v0z" />
    <glyph glyph-name="uniE970" unicode="&#xe970;" horiz-adv-x="1152" 
d="M480 832q-38 0 -74.5 -6t-70.5 -18q-33 -11 -61.5 -26.5t-52.5 -34.5q-45 -37 -69 -82t-24 -93q0 -27 7.5 -53.5t22.5 -50.5q15 -26 38 -49t52 -42q23 -15 37.5 -38t19.5 -50q0 -5 0.5 -9.5t1.5 -8.5q2 2 4 3.5t4 4.5q18 18 41.5 27.5t48.5 9.5q4 0 8 -0.5t8 -0.5
q15 -2 29.5 -3t29.5 -1q38 0 74.5 6t70.5 18q33 11 61.5 26.5t52.5 34.5q45 37 69 82t24 94q0 48 -24 93t-69 82q-24 19 -52.5 34.5t-61.5 26.5q-34 12 -70.5 18t-74.5 6v0zM480 960v0q99 0 186.5 -30.5t153 -83t103 -123.5t37.5 -151q0 -81 -37.5 -151.5t-103 -123.5
t-153 -83.5t-186.5 -30.5q-19 0 -38 1t-37 4q-38 -39 -79.5 -62.5t-85 -37t-87.5 -18.5t-89 -6v25q48 24 82 64.5t34 89.5q0 7 -0.5 13.5t-1.5 13.5q-41 26 -74 59.5t-56 72t-35.5 81.5t-12.5 89q0 80 37.5 151t103 123.5t153 83t186.5 30.5v0zM996 89q0 -42 25 -76.5
t67 -54.5v-22q-77 2 -148.5 21t-138.5 85q-16 -2 -32 -3t-33 -1q-72 0 -136.5 18.5t-117.5 50.5q55 0 107 9t101 25.5t93.5 40.5t83.5 56q39 31 70 68.5t53 78.5q23 44 34.5 91t11.5 96q0 7 -0.5 15t-0.5 16q54 -45 85.5 -104.5t31.5 -127.5q0 -78 -42 -145.5t-112 -113.5
q-1 -5 -1.5 -11t-0.5 -12v0z" />
    <glyph glyph-name="uniE971" unicode="&#xe971;" 
d="M576 253v53q53 30 90.5 97t37.5 141q0 60 -3 112.5t-21 91.5t-57 61.5t-111 22.5t-111 -22.5t-57 -61.5t-21 -91.5t-3 -112.5q0 -74 37.5 -141t90.5 -97v-53q-81 -6 -151.5 -28.5t-122 -56t-81 -77t-29.5 -91.5h896q0 48 -29.5 91.5t-81 77t-122 56t-151.5 28.5v0z" />
    <glyph glyph-name="uniE972" unicode="&#xe972;" horiz-adv-x="1152" 
d="M768 189v53q53 30 90.5 97t37.5 141q0 60 -3 112.5t-21 91.5t-57 61.5t-111 22.5t-111 -22.5t-57 -61.5t-21 -91.5t-3 -112.5q0 -74 37.5 -141t90.5 -97v-53q-81 -6 -151.5 -28.5t-122 -56t-81 -77t-29.5 -91.5h896q0 48 -29.5 91.5t-81 77t-122 56t-151.5 28.5v0z
M327 165q42 27 92.5 47.5t107.5 32.5q-11 13 -21.5 28t-19.5 31q-22 42 -34 86.5t-12 89.5q0 65 4 124.5t27 109.5q22 48 62 78t97 41q-13 58 -52.5 92.5t-129.5 34.5q-72 0 -111 -22.5t-57 -61.5t-21 -91.5t-3 -112.5q0 -74 37.5 -141t90.5 -97v-53q-81 -6 -151.5 -28.5
t-122 -56t-81 -77t-29.5 -91.5h279q11 10 23 19t25 18v0z" />
    <glyph glyph-name="uniE986" unicode="&#xe986;" 
d="M992 89l-242 206q-19 17 -38.5 25t-35.5 7q43 50 67.5 114t24.5 135q0 80 -30 149.5t-82.5 122t-122 82.5t-149.5 30t-149.5 -30t-122 -82.5t-82.5 -122t-30 -149.5t30 -149.5t82.5 -122t122 -82.5t149.5 -30q71 0 135 24.5t114 67.5q-1 -16 7 -35.5t25 -38.5l206 -242
q27 -30 64.5 -32t64.5 24q26 27 24 64.5t-32 64.5v0zM384 320q-53 0 -99.5 20t-81.5 55t-55 81.5t-20 99.5t20 99.5t55 81.5t81.5 55t99.5 20t99.5 -20t81.5 -55t55 -81.5t20 -99.5t-20 -99.5t-55 -81.5t-81.5 -55t-99.5 -20v0z" />
    <glyph glyph-name="uniE98D" unicode="&#xe98d;" 
d="M704 960q-66 0 -124.5 -25t-102 -68.5t-68.5 -102t-25 -124.5q0 -15 1.5 -29.5t3.5 -29.5l-389 -389v-192q0 -27 18.5 -45.5t45.5 -18.5h64v64h128v128h128v128h128l83 83q26 -9 53 -14t56 -5q66 0 124.5 25t102 68.5t68.5 102t25 124.5t-25 124.5t-68.5 102t-102 68.5
t-124.5 25v0zM800 640q-40 0 -68 28t-28 68t28 68t68 28t68 -28t28 -68t-28 -68t-68 -28v0z" />
    <glyph glyph-name="uniE996" unicode="&#xe996;" 
d="M1010 131l-302 302q-14 14 -33.5 14t-33.5 -14l-23 -23l-184 184l302 302h-320l-142 -142l-14 14h-68v-68l14 -14l-206 -206l160 -160l206 206l184 -184l-23 -23q-14 -14 -14 -33.5t14 -33.5l302 -302q14 -14 34 -14t34 14l113 113q14 14 14 34t-14 34v0z" />
    <glyph glyph-name="uniE99A" unicode="&#xe99a;" 
d="M448 384v448q-93 0 -174.5 -35t-142.5 -96t-96 -142.5t-35 -174.5t35 -174.5t96 -142.5t142.5 -96t174.5 -35t174.5 35t142.5 96t96 142.5t35 174.5q0 54 -12.5 104.5t-34.5 95.5l-401 -200v0zM913 712q-28 55 -69.5 101t-93 78.5t-112 50.5t-126.5 18v-448l401 200v0z
" />
    <glyph glyph-name="uniE99B" unicode="&#xe99b;" 
d="M128 64h896v-128h-1024v1024h128v-896zM288 128q-40 0 -68 28t-28 68t28 68t68 28h4h4l104 172q-8 11 -12 24t-4 28q0 40 28 68t68 28t68 -28t28 -68q0 -15 -4 -28t-12 -24l104 -172h4h4h3.5h2.5l171 298q-8 11 -12.5 25t-4.5 29q0 40 28 68t68 28t68 -28t28 -68t-28 -68
t-68 -28h-3.5h-2.5l-171 -298q8 -11 12.5 -25t4.5 -29q0 -40 -28 -68t-68 -28t-68 28t-28 68q0 15 4 28t12 24l-104 172h-4h-4h-4h-4l-104 -172q8 -11 12 -24t4 -28q0 -40 -28 -68t-68 -28v0z" />
    <glyph glyph-name="uniE99C" unicode="&#xe99c;" 
d="M0 128h1024v-128h-1024v128zM128 384h128v-192h-128v192zM320 640h128v-448h-128v448zM512 448h128v-256h-128v256zM704 832h128v-640h-128v640z" />
    <glyph glyph-name="uniE99D" unicode="&#xe99d;" 
d="M288 576h-192q-13 0 -22.5 -9.5t-9.5 -22.5v-576q0 -13 9.5 -22.5t22.5 -9.5h192q13 0 22.5 9.5t9.5 22.5v576q0 13 -9.5 22.5t-22.5 9.5v0zM288 0h-192v256h192v-256v0zM608 704h-192q-13 0 -22.5 -9.5t-9.5 -22.5v-704q0 -13 9.5 -22.5t22.5 -9.5h192q13 0 22.5 9.5
t9.5 22.5v704q0 13 -9.5 22.5t-22.5 9.5v0zM608 0h-192v320h192v-320v0zM928 832h-192q-13 0 -22.5 -9.5t-9.5 -22.5v-832q0 -13 9.5 -22.5t22.5 -9.5h192q13 0 22.5 9.5t9.5 22.5v832q0 13 -9.5 22.5t-22.5 9.5v0zM928 0h-192v384h192v-384v0z" />
    <glyph glyph-name="uniE9D7" unicode="&#xe9d7;" 
d="M1024 563l-354 51l-158 321l-158 -321l-354 -51l256 -250l-60 -352l316 166l316 -166l-60 352l256 250v0zM512 207l-223 -118l42 249l-181 176l250 36l112 227l112 -227l250 -36l-181 -176l42 -249l-223 118v0z" />
    <glyph glyph-name="uniE9D9" unicode="&#xe9d9;" 
d="M1024 563l-354 51l-158 321l-158 -321l-354 -51l256 -250l-60 -352l316 166l316 -166l-60 352l256 250v0z" />
    <glyph glyph-name="uniE9DA" unicode="&#xe9da;" 
d="M755 896q-40 0 -77 -15t-68.5 -40t-56.5 -57.5t-41 -66.5q-16 34 -41 66.5t-56.5 57.5t-68.5 40t-77 15q-56 0 -105 -21t-85.5 -57.5t-57.5 -85.5t-21 -105q0 -113 51 -191.5t127.5 -149.5t166 -148.5t167.5 -189.5q74 111 163 190t166.5 151t130 150.5t52.5 187.5
q0 56 -21 105t-57.5 85.5t-85.5 57.5t-105 21v0z" />
  </font>
</defs>
</svg>
